<svg xmlns="http://www.w3.org/2000/svg" viewBox="0 0 332 208"><path fill-rule="evenodd" clip-rule="evenodd" d="M115.69 92.07c1.19-.75 2.34-2.07 3.57-2.15 3.34-.22 6.72.08 10.08.18 1.62.05 3.26.31 4.85.13 2.36-.27 1.16-1.12 1.31-2.87.29-3.32-4.11-1.42-3.48-4.1-.46.08-.94.11-1.39.24-1.35.4-2.43.76-1.31-1.38.75-1.44-.35-1.39-1.28-1-.56.23-1 .79-1.56.95-.4.12-.92-.17-1.39-.28.14-.41.29-.81.44-1.22l.63-1.68c-.71-.05-1.48-.31-2.11-.11-1.08.34-2.07.96-3.09 1.47-.14-.27-.28-.54-.43-.81 1.66-1.19 3.31-2.37 5.53-3.96-2.46-2.01-4.76-3.89-7.1-5.8 2.36-.4 5.74 1.6 7.54 4.03 1.83 2.48 3.89 4.79 5.91 7.13.35.4.98.55 1.48.82.22-.65.77-1.43.59-1.94-.37-1-1.05-1.94-1.76-2.76-4.58-5.27-9.16-10.53-13.82-15.73-3.07-3.43-6.54-6.54-9.34-10.17-3.25-4.22-5.91-8.9-8.96-13.29-.95-1.37-2.12-2.79-3.53-3.6-7.61-4.36-15.8-6.57-24.64-6.16-1.76.08-2.67-.38-1.46-2.38.64-1.05.76-2.43 1.17-3.86 8.6 2.69 18.05 2.75 26.06 7.79.53.33 1.1.59 1.63.91 3.04 1.85 3.03 1.85 5.24.25 3.21 5.63 6.39 11.34 9.71 16.97 1.83 3.1 3.88 6.08 5.89 9.07.55.82 1.21 1.63 1.99 2.21 4.7 3.48 9.5 6.83 14.16 10.37 1.53 1.17 2.69 1.06 3.91-.19 2.44-2.49 4.86-5 7.25-7.54.96-1.02 1.82-2.13 2.73-3.2-1.42-.06-2.85-.11-4.27-.17-.62-.02-1.25-.03-1.87-.08-4.04-.33-7.5-2.5-7.94-5.7-.46-3.31 1.24-6.25 3.95-7.93 3.57-2.2 7.54-3.74 11.31-5.63 1.13-.57 2.13-1.38 3.19-2.08-.88-.96-1.63-2.12-2.67-2.86-3.77-2.63-7.98-4.3-12.28-5.95-5.87-2.25-11.67-4.98-16.97-8.34-3.35-2.12-5.9-5.64-8.47-8.8-1.49-1.83.23-2.22 1.76-2.27 5.71-.21 9.98 2.45 13.4 6.76.86 1.08 1.38 2.15 3.27 1.49.91-.32 2.75.44 3.44 1.29 3.46 4.28 8.59 5.89 13.24 7.8 4.31 1.77 7.56 4.04 9.98 7.9 2.39 3.81 6.88 4.45 10.77 1.87 4.44-2.95 8.91-5.84 13.46-8.62 1.78-1.09 3.85-1.68 5.67-2.72 2.22-1.27 4.18-3.04 6.48-4.11 6.44-3 11.72-8.32 18.95-9.68 1.08-.2 2.3.36 3.45.56-.49 1.03-.85 2.15-1.5 3.07-3.11 4.39-7.59 6.7-12.61 8.2-.91.27-1.68.98-2.56 1.4-1.74.83-3.52 1.57-5.27 2.38-4.38 2.04-8.79 4.01-13.1 6.19-1.96.99-3.71 2.4-5.51 3.68-.76.55-1.39 1.28-2.08 1.93.9.48 1.76 1.09 2.71 1.41 3.19 1.08 6.52 1.81 9.58 3.16 2.11.93 4.1 2.44 5.7 4.11 2.8 2.92 2.96 5.22 1.23 8.49-1.55 2.94-4.22 4.26-7.81 3.95-1.17-.1-2.36-.06-3.54-.08.62 1.29 1.05 2.73 1.91 3.82 1.93 2.43 4.1 4.67 6.14 7.02 1.07 1.23 1.9 1.5 3.42.32 3.23-2.51 6.83-4.52 10.04-7.05 2.8-2.21 5.64-4.56 7.79-7.37 4.23-5.51 8.33-11.18 11.86-17.15 2.7-4.58 7-6.71 11.34-8.5 6.23-2.56 12.83-4.23 19.27-6.29.59-.19 1.13-.52 1.72-.71.75-.23 1.53-.37 2.3-.56-.14.65-.37 1.29-.41 1.95-.03.44.1.96.34 1.33 1.47 2.23-.28 2.1-1.64 2.33-2.89.5-5.9.68-8.64 1.62-4.78 1.64-9.4 3.73-14.07 5.68-.52.22-.98.71-1.31 1.18-3.82 5.47-7.53 11.03-11.46 16.42-1.38 1.89-3.29 3.39-4.95 5.09-6.17 6.29-12.35 12.58-18.47 18.92-.54.56-.87 1.51-.94 2.31-.07.8.32 1.63.51 2.44.78-.25 1.73-.29 2.31-.78 2.97-2.44 5.71-5.17 8.78-7.47 3.92-2.93 6.96-2.09 9.15 2.93-2.34-.95-4.06-1.65-6.24-2.53.7.92 1.24 1.5 1.62 2.16.31.55.43 1.2.63 1.81-.7.04-1.46.28-2.08.07-.97-.33-2.15-1.62-2.68-1.36-2.37 1.17-4.54 2.75-6.79 4.18 1.29 4.84-3.32 3.5-5.23 5-.58.45-1.34.74-1.77 1.29-.48.62-.67 1.46-.99 2.2.77.26 1.55.73 2.32.73 5.62 0 11.31-.65 16.83.04 3.8.47 8.13.44 11.3 3.48l.07-.07c-2.91-.48-5.8-1.11-8.73-1.41-3.47-.35-6.96-.48-10.44-.59-2.62-.08-5.25-.11-7.85.11-.87.07-2.17.79-2.44 1.52-1.3 3.58-2.37 7.26-3.43 10.93-.52 1.81.28 2.36 2.06 2.09 2.15-.33 4.36-.36 6.54-.34 1.23.01 2.45.59 3.67.56 1.9-.04 2.88.23 3.11 2.57.15 1.46 1.62 3.03 2.88 4.1 7.77 6.61 15.68 13.06 23.47 19.63 3.02 2.54 5.89 5.26 8.78 7.94.4.37.48 1.05.83 1.49.29.36.73.7 1.16.83 1.21.37 2.65.31 3.63.98 5.7 3.88 11.76 6.32 18.83 5.77.58-.04 1.48 1.24 1.8 2.07.13.33-.94 1.62-1.45 1.6-2.31-.06-4.61-.42-6.91-.67-8.9-.99-15.79-6.15-22.82-11.02-.51-.35-.92-.98-1.47-1.13-7.76-2.12-11.42-9.27-17.11-13.92-5.2-4.26-10.22-8.74-15.39-13.04-4.87-4.05-4.9-3.98-9.9-.35-.68.49-1.63.61-2.32 1.09-.66.46-1.65 1.18-1.63 1.75.15 3.84.42 7.68.87 11.49.22 1.8 1.42 2.26 2.97 1.15.51-.36.9-.99 1.44-1.17 2.04-.65 3.76-3.77 5.91-2.03 2.07 1.67 3.67 4.08 3.88 7.27.45 6.81.94 13.68 2.29 20.34.75 3.69.86 7.35 1.44 10.98 1.43 9.04 3.37 17.98 11.55 23.95 3.04 2.22 4.79 6.13 8.95 7.01.14.03.27 1.61-.01 1.77-1.04.62-2.29 1.36-3.39 1.26-.93-.08-1.85-1.18-2.63-1.97-4.63-4.69-9.49-9.2-13.75-14.21-2.96-3.48-4.86-7.59-4.99-12.58-.12-4.57-1.66-9.08-2.2-13.66-.7-6.04-1.01-12.13-1.55-18.19-.08-.9-.56-1.76-.85-2.65-.85.57-1.94.98-2.52 1.76-1.27 1.69-2.27 3.57-3.41 5.36-.4.62-.8 1.59-1.34 1.71-3.48.72-3.48 3.53-3.82 6.09-.38 2.86-.78 5.55-3.01 7.81-1.13 1.15-1.29 3.19-2.12 4.7-2.3 4.13-4.34 8.5-7.23 12.18-2.32 2.95-5.59 5.24-8.71 7.44-2.23 1.58-4.49.74-6.33-1.26-5.94-6.44-10.66-13.64-14.05-21.74-.53-1.26-1.78-2.2-2.62-3.35-.63-.86-1.25-1.77-1.63-2.75-.31-.79-.32-1.72-.36-2.59-.18-3.88-1.81-6.55-5.36-8.57-2.38-1.35-4-4.01-6.01-6.04-.49-.49-1.18-.78-1.78-1.16-.31.61-.87 1.21-.9 1.83-.31 7.85-.63 15.71-.75 23.56-.06 3.86.18 7.74.44 11.6.21 3.06.66 6.1 1.03 9.43-1.98-1.42-3.24-.36-4.34 1.35-3.58 5.52-9.43 8.39-14.47 12.18-2.96 2.22-6.25 4-9.35 6.05-1.21.8-2.31 1.75-3.58 2.73.01 0-.33 0-.42-.15-2.4-4.15-2.27-3.89 2.31-6.19 2.92-1.46 5.38-3.85 8.03-5.83 2.5-1.87 4.36-4.83 8.06-4.7.36.01.76-.73 1.12-1.14 1.85-2.13 4.57-4.02 5.28-6.49.66-2.31-1.15-5.21-1.26-7.88-.21-4.98.01-9.98.1-14.98.01-.76.32-1.52 1.04-2.24.57 4.74 1.13 9.48 1.7 14.22 2.22-1.77 1.82-3.88 1.52-5.84-.65-4.29-1.61-8.54-2.23-12.83-.3-2.08-.35-4.25-.09-6.33.78-6.07 1.42-12.18 4.85-17.58 1.19-1.87 2.37-2.09 3.96-1.04 1.98 1.3 3.93 2.66 5.73 4.19 1.63 1.39 2.51.78 2.96-.88.39-1.43 1-3.15.55-4.39-1.34-3.66-.08-6.79 1.26-9.99.69-1.63.63-1.92-1.48-1.92-2.18.01-4.49-1.08-6.5-2.16-1.85-.99-3.02-1.02-4.56.54-6.99 7.12-14.06 14.16-21.18 21.15-3.57 3.51-7.03 6.97-8.86 11.85-.71 1.91-2.57 3.38-3.91 5.05-.37-.22-.74-.44-1.1-.66.86-1.9 1.72-3.79 2.97-6.58-2.16 1.07-3.66 1.67-5.02 2.5-7.92 4.84-16.75 7.36-25.56 9.83-2.64.74-5.6.48-8.41.43-.61-.01-1.54-.99-1.68-1.66-.1-.49.75-1.47 1.39-1.73 1.01-.41 2.2-.39 3.3-.59 3.66-.65 7.31-1.33 10.97-1.98.72-.13 1.52-.4 2.18-.22 1.53.42 2.47.14 3.45-1.26.72-1.04 2.27-2.35 3.25-2.2 3.09.47 5.01-2.97 8.06-2.03.84-2.58 5.56-1.5 5.1-5.51-.1-.82 1-1.98 1.8-2.68 3.48-3 7.13-5.82 10.59-8.85 3.75-3.28 7.36-6.71 11.01-10.1.34-.31.79-.91.69-1.22-1.16-3.5 2.54-2.87 3.78-4.27.66-.74 1.86.16 1.27 1.56-.23.54-.59 1.03-.89 1.55l.61.55c.71-.84 2.1-1.75 2.01-2.49-.52-4.43 3.34-4.04 5.59-5.27 1.5-.82 3.32-1.04 4.95-1.67.46-.18.75-.82 1.12-1.25-.36-.27-.69-.62-1.09-.8-2.11-.93-4.21-1.89-6.37-2.68-1.79-.65-3.66-1.08-5.93-1.74 1.92-1.67 3.56-1.39 5.25-.47 1.62.89 3.19 1.89 4.87 2.64.71.32 1.65.11 2.48.15-.02-.69.1-1.41-.08-2.05-1.67-5.89-1.69-5.88-8.08-5.5-4.36.26-8.73.48-13.1.72l-.03.01zM83.83 61.8c1.15-1.48 3.21-.4 4.45-1.59.08-.15.15-.3.23-.45-.86-.64-1.63-1.49-2.59-1.87-2.28-.89-4.69-1.47-6.99-2.32-6.11-2.26-12.19-4.64-18.31-6.88-2.41-.88-4.91-1.56-7.39-2.24-3.31-.91-6.63-1.76-9.96-2.58-4.19-1.03-8.36-2.14-12.59-2.92-1.37-.25-2.92.39-4.38.65-1.57.28-3.12.78-4.7.86-7.09.36-13.85 6.76-15.21 13.72-.57 2.93-.46 5.62.28 8.29 1.14 4.1 2.63 8.11 4.03 12.14.12.35.77.77 1.11.72.37-.05.93-.59.96-.95.06-.82.07-1.79-.3-2.48-1.51-2.82-1.57-2.79 1.53-3.51.61-.14 1.3-.14 1.8-.45 1.15-.71 2.21-1.58 3.3-2.38-1.24-.35-2.47-.94-3.72-1.01-1.91-.1-4.66.97-5.56.06-1.2-1.21-1.01-3.83-1.31-5.87-.08-.53.09-1.48.41-1.62 2.39-1.04 2.83-2.22.57-3.92-.13-.09-.03-.7.13-.97 1-1.63 2.04-3.24 3.1-4.83 1.09-1.63 2.4-2.9 4.6-2.48l-.07.08c.82-.51 1.58-1.19 2.47-1.47.9-.29 2.24.2 2.85-.3 3.57-2.98 7.69-.71 11.48-1.35.6-.1 1.36.8 2.05 1.23-.37.57-.64 1.24-1.11 1.69-1.43 1.36-2.94 2.63-4.01 3.57 2.01-.35 4.27-.76 6.54-1.16l-.06.02c-.39-3.07 2.43-2.96 4.06-4 .13-.08 1.25.81 1.24 1.22-.09 2.62 1.57 1.93 2.69 1.3 1.88-1.05 3.46-1.24 5.06.39.24.24.67.33 1.03.42 2.87.73 5.77 1.33 8.59 2.2 2.94.9 5.82 2.02 8.7 3.11 1.6.61 1.81 1.47.43 2.72-1.47 1.34-2.77 2.86-4.15 4.3l.06.78c2.05-.36 4.2-.43 6.11-1.15 2.15-.81 3.34-.48 4.67 1.46.99 1.45 2.76 2.37 4.22 3.46.21.16.92.08.98-.06.15-.37.21-.89.06-1.25-1.07-2.53-1.09-2.53 2.12-2.19.17-.06.33-.1.5-.14zm3.79 41.82c-1.47-.64-2.88-1.6-4.41-1.87-3.93-.7-7.8-2.06-11.71.92-2.54 1.94-5.95 1.76-8.85.11-1.34-.76-2.28-1.41-3.52.06-1.31 1.55-2.59 1.11-3.7-.33-.53-.69-.96-1.48-1.57-2.08-.33-.33-.94-.37-1.42-.54.03.45-.13 1.05.1 1.33 2.24 2.71 3.96 6.22 8.62 5.04 1.2-.3 2.71.77 3.98.59 2.48-.35 5.04-.83 7.28-1.87 1.56-.72 1.28-1.12 2.5.47.28.37 1.23.4 1.84.31 1.39-.2 2.74-.68 4.13-.84 2.19-.26 4.4-.35 6.6-.51.03-.27.08-.53.13-.79zm-57.64-7.79c-1.5-1.56-3-3.12-4.48-4.69-.36-.39-1.02-1.01-.91-1.26 1.3-3.04.47-3.49-2.31-2.11-.42.21-1.23-.35-1.86-.56.36-.4.68-.85 1.09-1.19 1.99-1.67 2.27-3.8.4-5.25-1.98-1.53-4.15-2.75-3.31-5.87.1-.38-.55-1.33-.95-1.4-.62-.1-1.53.12-1.98.56-1.78 1.72-.63 3.05.67 4.43.34.36.14 1.23.19 1.86-.56-.21-1.13-.38-1.67-.63-.51-.23-.98-.53-1.47-.8-.04.65-.37 1.55-.07 1.92 2.96 3.62 5.77 7.41 9.15 10.6 2.06 1.94 5.03 2.9 7.59 4.3l-.08.09zm193.05-21.74c-.3-.84-.59-1.69-.89-2.53.9.09 1.81.14 2.71.26.8.11 1.59.3 2.39.45-.19-.77-.38-1.55-.59-2.43 2.56.78 2.53.76 3.65-1.28.15-.28.88-.56 1.14-.43 2.24 1.13 3.26.39 3.01-2.33 1.03.49 1.66.98 2.35 1.07.64.08 1.33-.27 2-.42-.4-.54-.73-1.47-1.2-1.55-1.65-.27-3.49-.69-5-.24-5.36 1.61-10.62 3.57-16.71 5.66 2.49 1.76 4.48 3.17 6.48 4.58.21-.26.44-.54.66-.81zm-178.19 50.3c-1.08-4.22-1.08-4.22-4.43-3.5-3.12.67-3.12.67-2.58-2.68-4.73.89-4.74.91-9.21-2.06-.5-.33-.69-1.13-1.03-1.71.76.03 1.52.03 2.26.12.19.02.3.46.5.52.79.24 1.6.4 2.4.59-.28-.97-.25-2.29-.89-2.83-1.09-.93-2.56-1.49-3.95-1.94-.52-.17-1.5.21-1.9.66-1.48 1.67-1.21 5.03.73 6 5.8 2.9 11.12 7.2 18.17 6.77l-.07.06zm172.69-12.2c.62.7 1.11 1.7 1.88 2.03 4.68 1.99 9.04 4.59 14.19 5.66 4.29.89 8.3 3.06 12.46 4.62 1.66.62 3.36 1.41 5.64.19-2.49-1.08-4.46-2.53-6.53-2.7-2.63-.21-3.88-1.29-4.51-3.59-.02-.07-.28-.17-.33-.13-2.45 1.95-4.64-.45-6.97-.57-2.72-.14-6.11-.81-7.88-2.58-2.48-2.49-5.08-2.73-8.03-2.86l.08-.07zM103.25 68.9c-4.49-2.94-9.5-4.9-14.18-7.5-1.78-.99-4.03-1.17-5.8.6l.06-.08c.45.54.8 1.35 1.37 1.57 2.28.9 4.75 1.39 6.95 2.44 4.38 2.09 8.57 4.55 12.95 6.64 2.03.97 4.31 1.41 6.48 2.09l-.07.08c.34-2.31 2.49-1.67 3.83-2.35l-.07.07c-2.06-3.75-4.44 1.13-6.62-.12.05-.35.01-.63.13-.79.48-.65 1-1.26 1.51-1.89-.85.18-1.83.14-2.53.57-1.59.97-2.75.72-3.74-.79l-.27-.54zm-73.36 40.31c1.63.92 3.22 1.65 4.89 1.95 1.13.2 2.99.23 3.46-.43 2.34-3.23 5.4-2.5 8.41-1.89 1.53.31 3.1.96 4.34 1.88.31.23-.58 2.09-1.08 3.72 1.89-1.07 4.71-1.5 3.26-3.6-1.3-1.9-.34-2.49.47-3.55-8.4-2.38-15.9 1.23-23.75 1.92zm58.7-49.54c-1.04 2.43 1.02 2.39 2.35 3.09 4.24 2.2 8.87 3.68 12.64 6.74l-.07-.06c2.31-.93 4.62-1.86 6.94-2.79-.06-.29-.12-.59-.17-.88-1.13 0-2.26.01-3.39 0-.71 0-1.53.2-2.12-.08-2.51-1.19-4.86-2.79-7.45-3.73-2.83-1.03-5.86-1.49-8.81-2.2l.08-.09zm-43.68 64.66c4.79.52 9.05 3.41 14.15 2.85 4.74-.52 9.54-.51 14.32-.73-.01-.3-.02-.61-.02-.91-4.83 0-9.68.25-14.49-.11-2.2-.16-5.5.24-5.62-3.68-.01-.29-.68-.57-.73-.61-.85.88-1.41 1.94-2.23 2.2-1.74.56-3.61.72-5.43 1.05l.05-.06zm33.08-55.64c-2.76.48-5.43-2.45-8.87-.1 2.1.79 3.72 1.34 5.29 1.99 1.59.66 1.96 1.53.24 2.53-.45.26-.94.45-1.41.67.67.65 1.23.81 1.79.82 1.82.03 4.25-.6 2.54 2.75-.12.24.54.89.84 1.34.64-.43 1.6-.74 1.84-1.33.46-1.11.5-2.39.72-3.61-3.21-.41-2.48-3.15-3.03-5.13l.05.07zm224.66 29.36c3.08-2.69 6.36-5.18 9.32-8 2.7-2.57 5.1-5.45 7.55-8.27.29-.34.09-1.1.12-1.67-.5.17-1.11.21-1.47.54-.54.49-.85 1.23-1.35 1.77-5.42 5.85-9.89 12.79-18.23 15.65 1.62 1.51 2.78 1.1 4.06-.02zm-272.61-2.3c1.66 1.16 3.19 2.63 5.02 3.42 2.58 1.1 5.57 1.33 8.03 2.61 2.55 1.32 4.88.89 7.44.29-1.07-.76-2.23-1.09-3.4-1.35-1.5-.34-3.02-.57-4.51-.96-1.07-.28-2.12-.68-3.15-1.1-2.21-.91-4.36-1.96-6.6-2.75-.86-.3-1.91-.05-2.88-.06l.05-.1zm179.25 1c.45.11.9.25 1.36.32 2.19.31 4.56.15 6.52.99 3.53 1.5 6.03 1.8 10.1-.18-6.33-.56-11.89-3.05-17.85-1.98-.04.28-.09.57-.13.85zM24.81 52.21c.6-.36 1.05-.98 1.57-1.49-.77-.19-1.86-.79-2.25-.49-1.36 1.05-3 2.23-3.51 3.72-.38 1.12-.51 1.21-1.5 1.23-.57.01-1.14.62-1.7.95.85.96 1.64 1.98 2.59 2.83.32.29 1.49.26 1.51.18.56-2.13 3.84-3.63 1.1-6.47 1.02-.19 1.7-.17 2.19-.46zm296.05-4.62c-.53-.42-1.49-.31-2.26-.45.3.6.49 1.28.91 1.78 2.42 2.88 5.9 5.27 4.05 9.96-.14.35.95 1.18 1.48 1.79.44-.64.88-1.28 1.03-1.51-.21-5.32-1.84-8.9-5.21-11.57zm-57.05 11.52c.61-.35 1.17-2.12.85-2.52-.8-1-2.06-1.72-3.26-2.28-.36-.17-1.67.64-1.63.8.99 4.44-2.15 1.66-3.77 2.1 2.18 2.19 5.69 3.13 7.81 1.9zM86.53 100.97c3.69.88 7.38 1.8 11.09 2.57.49.1 1.15-.57 1.73-.89-.45-.58-.8-1.52-1.37-1.68-2.24-.63-4.54-1.16-6.85-1.45-1.5-.19-3.05.1-4.58.17-.01.42-.02.85-.02 1.28zm168.18 25.52c4.3.39 8.6.78 12.91 1.03.42.02.89-.89 1.34-1.37-.7-.4-1.41-1.18-2.09-1.15-4.13.15-8.25.48-12.6.76.21.36.31.72.44.73zM70.12 91.59c-.59 1.45 1.22 6.54 2.72 7.34.44.23 1.31.28 1.59.01.34-.33.52-1.21.31-1.64-.98-2.03-2.12-4-3.22-5.98-.1-.18-.4-.26-1.03-.65-.09.24-.23.58-.37.92zM291.5 49.23c1.56-.86 3.15-1.66 4.64-2.62.34-.22.32-1.01.47-1.53-.57.04-1.35-.14-1.66.16-1.44 1.37-2.69 2.37-4.49.36-.35-.4-1.7.09-2.6.17.48.94.85 1.98 1.51 2.77.25.31 1.18.05 1.8.05.11.22.22.43.33.64zm-40.82 17.9c1.73 3.56 5.98 6.11 9.42 5.61.43-.06.81-.41 1.22-.63-.25-.35-.55-1.02-.74-.99-3.35.49-5.86-.75-7.85-3.44-.33-.44-1.39-.34-2.12-.49l.07-.06zM37.67 59.66c-3.22-.61-3.7 2.83-5.73 4.03-.31.18-.17 1.15-.24 1.75.62-.21 1.64-.28 1.78-.67.8-2.22 2.52-2.88 4.6-3.17.44-.06.83-.42 1.68-.88-.95-.5-1.48-.95-2.09-1.06zm221.47 42.56c2.96 0 5.93.04 8.89-.06.35-.01.66-.83.99-1.27-.36-.21-.75-.64-1.09-.6-2.96.34-5.91.75-8.86 1.15.02.26.04.52.07.78zm-54.36-3.09c.49.01 1-.79 1.49-1.22-.63-.24-1.37-.81-1.87-.65-2.4.77-4.74 1.74-7.6 2.82 3.36 2.24 5.41-.99 7.98-.95zm12.67 13.13c.87-1.05 1.84-2.04 2.55-3.18.18-.29-.42-1.08-.66-1.64-1.64 1.12-3.29 2.22-4.88 3.4-.08.06.23 1.05.48 1.11.83.21 1.72.19 2.58.25l-.07.06zm-97.24-13.44c-1.86-1.89-4.74-2.06-8.05 0h8.05zM46.27 84.8c-2.05-.9-4.13-1.72-6.24-2.46-.26-.09-.74.45-1.11.7.25.37.41.92.76 1.09 1.99.94 4 1.82 6.05 2.61.36.14.91-.24 1.58-.44-.49-.73-.66-1.34-1.04-1.5zm198.78 18.59c3.56-1.42 6.38-2.54 9.09-3.62-5.54-.52-6.74-.14-9.09 3.62zm61.24 11.93c.02-.7-1.39-2.13-1.91-2.02-1 .22-1.82 1.29-2.71 2.01.7.74 1.4 1.49 2.4 2.55.99-1.05 2.2-1.78 2.22-2.54zm-75.04-14.51h7.43c.01-.29.02-.59.04-.88h-7.33c-.05.29-.09.58-.14.88zm18.1-41.63c1.32.99 2.58 2.07 3.99 2.91.47.28 1.32-.07 2-.13-.26-.62-.35-1.57-.81-1.81-1.47-.77-3.08-1.27-4.64-1.88-.18.3-.36.6-.54.91zm6.46 7.65c2.22.03 4.43.1 6.64.04.27-.01.81-.92.73-1.03-.31-.41-.87-.97-1.27-.92-1.98.21-3.94.6-5.91.93-.07.32-.13.65-.19.98zm-5.3 9.4c2.85.62 5.73.15 8.6.12.01-.36.03-.72.04-1.08h-8.6c-.02.31-.03.63-.04.96zm73.9-10.95l-2.29 5.47c3.75-1.21 4.13-2.25 2.29-5.47zm-74.06 29.6c-2.81 1.02-5.63 2.05-8.44 3.07 3.49 1.14 5.65-1.81 8.44-3.07zm60.96-51.52c-2.35-.15-4.26-.27-6.18-.39 2.39 3.11 2.39 3.11 6.18.39zm-214.4 77.87c2.22-.73 4.43-1.46 7.31-2.41-3.55-1.31-5.34.87-7.54 1.64.08.26.16.52.23.77zm147.85-9.57c.7.86 1.27 1.92 2.15 2.5.44.29 1.45-.27 2.21-.45-.31-.57-.47-1.36-.95-1.66-.84-.54-1.87-.78-2.82-1.15-.2.25-.39.5-.59.76zm-35.33-6.98c1.1-.63 2.3-1.16 3.25-1.96.33-.28.06-1.28.07-1.95-.63.12-1.48.02-1.85.39-.8.81-1.36 1.86-2.01 2.81.17.24.36.47.54.71zm-90.01-30.06c-.85 1.1-1.7 2.19-2.56 3.29.08.19.16.37.24.55 1.78-.82 3.55-1.63 5.33-2.45 0-.27-.01-.54-.02-.81-1.02-.17-2.04-.34-3.06-.52l.07-.06zm170.06 26.75c-1.47-.13-2.94-.31-4.41-.34-.35 0-.7.56-1.05.86.33.32.67.91 1 .9 1.53-.03 3.06-.23 4.6-.36-.05-.36-.1-.71-.14-1.06zm-78.63 8.6c1.09-.64 2.16-1.32 3.17-2.07.06-.04-.37-.76-.57-1.16-1.01.56-2.04 1.08-3.01 1.7-.26.16-.33.61-.59 1.12.56.24.88.49 1 .41zM81.5 125.05h5.24v-1.08h-5.23c0 .36-.01.72-.01 1.08zm201.87.6c-1.48 0-2.96-.01-4.44.04-.07 0-.12.62-.18.95 1.47.19 2.94.38 4.4.56.07-.51.14-1.03.22-1.55zM118.6 108.19c.3-.17.35-.77.51-1.18-1.08 0-2.15-.03-3.23.03-.42.03-.82.28-1.47.51 1.37 2.02 2.81 1.44 4.19.64zm153.32-37.83c.54 1.12 1.08 2.23 1.62 3.35.44-.37 1.3-.95 1.24-1.07-.5-1.04-1.18-2-1.8-2.99-.35.23-.71.47-1.06.71zm-169.87 30.3l4.6.66c.05-.47.1-.94.16-1.4l-4.63-.48c-.04.4-.09.81-.13 1.22zm138.87-38.28c-.26-.09-.72.44-1.09.69.75.67 1.44 1.44 2.28 1.95.26.16.95-.39 2.28-.98-1.65-.81-2.52-1.33-3.47-1.66zM35.47 73.54c-.87.47-1.78.95-2.44 1.65-.17.18.49 1.14.77 1.75.77-.72 1.55-1.43 2.52-2.33-.36-.46-.79-1.11-.85-1.07zM234.6 96.67c1.32.12 2.65.23 3.98.35.04-.4.07-.81.11-1.21-1.32-.12-2.65-.23-3.97-.35-.05.4-.08.8-.12 1.21zM86.27 87.42l-.42-.81c-1.38.66-2.76 1.33-4.14 1.99 2.24 1.07 3.7.5 4.56-1.18zm159.51-7.2c1.28-.08 2.56-.16 3.84-.27.03 0 .03-.42.04-.64l-3.83-.15c-.02.35-.03.7-.05 1.06zM57.24 116.55l-3.29-2.3c-.24.4-.73 1.11-.67 1.15 1 .84 2.08 1.6 3.13 2.38.28-.41.55-.82.83-1.23zm-5.18-58.56c-.53-.66-1.23-1.19-1.87-1.77-.34.39-1.05.96-.96 1.14.33.71.93 1.3 1.62 2.18.57-.72 1.28-1.45 1.21-1.55zm-29.23 3.97c-.03.05.53.39.82.6.68-1.09 1.37-2.16 2-3.27.08-.14-.11-.44-.46-1.67-1.03 1.85-1.73 3.08-2.36 4.34zm1.74-15.56c-.57.02-1.12.61-1.68.95.59.52 1.12 1.27 1.81 1.48.37.11 1.02-.68 1.94-1.36-.96-.53-1.53-1.1-2.07-1.07zm258.39 4.71c-.14 1.17-.33 2.34-.36 3.51 0 .14.82.31 1.25.46.11-1.02.23-2.04.3-3.06.02-.21-.15-.43-.24-.64-.31-.09-.63-.18-.95-.27zm-37.94 10.72c1.2.44 2.38.91 3.6 1.29.12.04.42-.51.64-.78-1.15-.56-2.31-1.11-3.46-1.66-.06-.03-.2.09-.31.14-.16.34-.31.68-.47 1.01zm-19.3 31.66c1.68 1.86 3.64 2.07 5.77 1.23.04-.29.08-.59.11-.88-1.98-.09-3.97-.18-5.95-.28l.07-.07zm60.35-28.94c.88-.73 1.76-1.45 2.64-2.18-.33-.34-.9-1.01-.95-.98-.86.65-1.67 1.39-2.48 2.1.26.35.52.7.79 1.06zM40.83 67.2c-.14-.71-.07-1.57-.47-2.08-.43-.55-1.29-.75-1.96-1.11.22.61.39 1.26.69 1.83.29.56.72 1.06 1.09 1.59.21-.08.43-.15.65-.23zm255.65 32.37l-3.81-.57c-.05.37-.11.73-.16 1.1 1.27.24 2.53.48 3.79.72l.18-1.25zm-180.79-7.5c-1.98.27-4.22-1.15-5.97.58.09.38.17.75.26 1.13l5.65-1.77.06.06zM294.5 52.93c-.45.51-1.07.95-1.27 1.54-.1.28.59 1.21.9 1.19.55-.02 1.09-.53 1.9-.99-.67-.76-1.1-1.25-1.53-1.74zM104.4 95.3l2.98-.48-.12-1.07c-1.01.06-2.02.11-3.03.17.05.46.11.92.17 1.38zm211-50.65c-.57.03-1.12.62-1.68.96.58.44 1.13 1.14 1.77 1.24.49.08 1.1-.6 2.06-1.18-1-.5-1.59-1.05-2.15-1.02zM270.49 86.2c-.79-.76-1.57-1.53-2.36-2.29-.22.25-.66.69-.63.73.68.84 1.42 1.63 2.15 2.43.28-.28.56-.57.84-.87zM33.32 84.87c-.11-.69-.8-1.29-1.25-1.93-.48.44-1.31.85-1.34 1.32-.04.67.5 1.37 1 2.53.81-.94 1.66-1.51 1.59-1.92zm64.12 12.5c-.99.15-1.98.31-2.97.46l.15 1.13c1-.12 2-.23 2.99-.35-.05-.41-.11-.82-.17-1.24zM57.12 93.7c-.28-.04-.65.54-.99.84.61.5 1.16 1.1 1.85 1.44.19.1.76-.58 1.64-1.28-1.16-.49-1.81-.89-2.5-1zm57.84 18.11c-.41-.06-.89.46-1.34.72.37.5.66 1.19 1.16 1.44.27.14.91-.48 1.71-.94-.69-.58-1.07-1.16-1.53-1.22zm-3.89-37.15l2.49 1.95c.26-.34.52-.69.77-1.03-.99-.28-1.98-.56-2.97-.83-.11-.03-.24-.01-.36-.01l.07-.08zm8.29.03c-1.53-.74-3.06-1.48-4.6-2.22l.07-.07c.44 2.99 2.74 2.15 4.59 2.23l-.06.06zm183.31-25.28c-.01.24.98.82 1.33.7.42-.14.89-.86.89-1.33-.01-.4-.66-.78-1.3-1.46-.46.94-.89 1.5-.92 2.09zM83.01 96.64h3.42l.03-.85-3.4-.27c-.02.36-.03.74-.05 1.12zm-.54 12.34c-.25-.06-.65.5-.98.77.35.4.63.93 1.06 1.16.2.1.71-.39 1.4-.81-.65-.53-1.02-1-1.48-1.12zm172.57-5.75c-1.01.13-2.01.26-3.02.4.03.27.07.54.1.81h2.98l-.06-1.21zM65.01 76.46c0 .42.61.84.95 1.26.39-.38 1.05-.73 1.09-1.14.05-.46-.46-.98-.94-1.87-.55.82-1.11 1.29-1.1 1.75zm224.01 45.78c-.75.78-1.5 1.56-2.24 2.35.2.19.39.38.59.57.82-.7 1.64-1.4 2.47-2.1-.28-.27-.55-.54-.82-.82zm13.25-65c-.04-.02-.67.95-.58 1.05.45.5 1.02.95 1.63 1.22.21.09.68-.43 1.42-.95-1.06-.6-1.75-1-2.47-1.32zM26.11 72.16c-.23-.05-.93.73-.87.84.3.56.73 1.09 1.23 1.49.1.08.67-.42 1.89-1.21-1.02-.54-1.6-.97-2.25-1.12zm90.87-4.46h-3.51c0 .28-.01.57-.01.85 1.18.09 2.36.17 3.54.26-.01-.37-.02-.74-.02-1.11zm-87.81 7.9c-.55 1.19-1.09 2.38-1.64 3.57.22.11.45.21.67.32.59-1.17 1.17-2.34 1.76-3.52-.27-.11-.53-.24-.79-.37zm61.8 47.49c.88-.04 1.76-.09 2.64-.13-.01-.26-.01-.52-.02-.78h-2.63c0 .31 0 .61.01.91zM71.36 63.7c-1.06.08-2.12.17-3.18.25.02.37.05.74.07 1.11l3.19-.18c-.02-.39-.05-.78-.08-1.18zm13.41 4.89c.93-.05 1.85-.09 2.78-.14v-.75l-2.75-.18-.03 1.07zM36.64 52.28c-.57.09-1.07.67-1.6 1.03.41.38.82 1.06 1.22 1.05.58-.01 1.16-.51 2.1-.98-.81-.55-1.32-1.16-1.72-1.1zm264.54-7.03c.18.46.68.79 1.05 1.17.25-.35.73-.74.68-1.05-.07-.45-.51-.85-1.04-1.64-.38.79-.8 1.26-.69 1.52zM272.26 66.2c.08.37.83.72 1.33.81.29.05.68-.43 1.02-.67-.32-.42-.65-.83-1.57-2.02-.39.87-.88 1.44-.78 1.88zm-12.82 53.47c-.48.09-.86.69-1.29 1.06.54.37 1.04.96 1.62 1.03.36.05.81-.68 1.56-1.37-.87-.36-1.43-.8-1.89-.72zM17.32 46.92c.51 1.87 1.94 2.38 3.45 2.78l.45-.72c-1.32-.66-2.65-1.32-3.97-1.99l.07-.07zm69.53 24.75h-2.86c.01.2.02.4.02.6h2.86c-.01-.2-.02-.41-.02-.6zm-55.72-2.1c-.54.33-1.02.81-1.39 1.33-.07.1.69.97.76.93.58-.31 1.09-.76 1.87-1.36-.6-.44-1.11-.98-1.24-.9zm234.76-8.03c-.48.15-.85.64-1.27.98.32.27.68.77.97.74.48-.05.92-.46 1.74-.92-.73-.43-1.17-.89-1.44-.8zM77.92 68.61l3.6-.42-.3-.99c-1.08.49-2.16.99-3.23 1.48l-.07-.07zM52.74 89.82c-.34.04-.63.63-.94.98.43.34.85.94 1.28.95.41.01.83-.6 1.61-1.25-.94-.36-1.47-.73-1.95-.68zm216.64.66c.76.8 1.52 1.61 2.28 2.41l.41-.53c-.92-.61-1.84-1.22-2.75-1.82l.06-.06zm-13.99 26.77c-.4.36-.69.86-.9 1.36-.04.1.57.66.69.61.48-.23.88-.62 1.61-1.19-.72-.41-1.3-.87-1.4-.78zm-167.53 2.9c-.32-.04-.71.39-1.06.62.37.29.7.67 1.11.83.21.08.57-.22 1.15-.47-.52-.46-.83-.94-1.2-.98zm-28.04 2.66c-.36-.39-.71-1.07-1.08-1.08-.39-.01-.79.63-1.19.98.33.3.65.6 1.11 1.03.48-.37.82-.65 1.16-.93zm225.56-34.92c-.49.11-.91.57-1.35.88.36.28.69.75 1.07.8.37.05.81-.32 1.56-.66-.63-.52-1.02-1.08-1.28-1.02zm-8.9-26.23c-.15-.04-.41.42-.62.66.46.3.89.65 1.38.85.14.06.47-.36.96-.76-.73-.34-1.2-.63-1.72-.75zm-39.37 49.4c.04-.09-.6-.62-.65-.59-.43.34-.83.72-1.14 1.17-.05.07.39.49.8.99.42-.63.77-1.07.99-1.57zm24.45-15.09c-.04.08.57.7.68.64.5-.23.99-.56 1.33-.99.09-.11-.38-.67-.77-1.31-.57.75-.96 1.17-1.24 1.66zm53.61-17.84c-.4.32-.8.78-.93 1.26-.05.2.56.83.86.83.55-.01 1.09-.35 2.08-.71-1.35-.95-1.91-1.46-2.01-1.38zm-34.02-2.96c-.38.05-.71.46-1.07.72.29.27.57.75.88.77.38.02.78-.34 1.55-.73-.68-.41-1.05-.8-1.36-.76zM299.4 50c-.04-.49-.45-.95-.71-1.42-.42.36-.98.64-1.19 1.1-.11.22.41.75.79 1.36.5-.45 1.13-.77 1.11-1.04zM63.41 71.6c-.37-.17-.87-.58-1.07-.47-.43.25-.69.77-1.03 1.17.34.27.69.78 1.01.76.54-.03 1.05-.4 1.57-.63-.16-.28-.32-.55-.48-.83zM74.59 115c-.04.18.52.72.63.67.37-.15.71-.46.93-.79.06-.09-.38-.5-.77-.98-.35.45-.7.74-.79 1.1zm-8.03-.99c-.4.11-.74.46-1.1.72.22.25.46.72.67.7.41-.03.8-.32 1.41-.6-.49-.43-.8-.87-.98-.82zM34.78 90.9c-.04.24.39.78.58.76.37-.03.97-.3 1.02-.56.06-.33-.33-.74-.71-1.49-.47.64-.83.94-.89 1.29zm15.28-12.28c-.13-.41-.48-.75-.74-1.13-.28.3-.78.6-.78.89.01.35.45.7.83 1.22.35-.48.74-.8.69-.98zm-28.58-7.4c.02-.2-.42-.46-.66-.69-.32.45-.65.9-.98 1.34.28.19.55.37 1.03.7.26-.54.55-.93.61-1.35zm238.31 41.69c.01-.19-.54-.64-.69-.59-.37.14-.86.46-.93.79-.06.25.45.62.95 1.24.35-.71.64-1.07.67-1.44zm-12.24-39.33c-.02-.26-.55-.73-.66-.68-.35.17-.62.53-.92.81.27.21.54.41.89.69.29-.32.7-.59.69-.82zm-209.08.01c-.05.19.41.72.61.71.37-.02.96-.29 1.02-.54.07-.31-.33-.72-.69-1.4-.48.59-.85.88-.94 1.23zm186.68 35.6c-.24-.09-.98.39-.98.6.01.41.3.94.64 1.17.19.13.72-.24 1.36-.48-.47-.63-.67-1.17-1.02-1.29zm75.69-27.04c-.44.12-.84.4-1.25.61.21.37.41.74.62 1.1.38-.24.77-.48 1.27-.79-.29-.43-.54-.95-.64-.92zm-4.73 38.02c-.23.02-.67.59-.6.74.15.34.56.81.84.79.35-.02.68-.47 1.36-1-.81-.29-1.22-.56-1.6-.53zM60.58 85.84c-.53-.57-1.05-1.14-1.58-1.71-.17.15-.35.3-.52.45.48.61.97 1.21 1.45 1.82.22-.18.43-.37.65-.56zm-6.72-2.96c-.03.19.45.67.68.66.37-.03.72-.35 1.08-.55-.25-.35-.5-.71-.95-1.36-.41.58-.76.89-.81 1.25zm32.43 30.14c-.05.06.42.69.53.65.4-.12.77-.38 1.07-.67.06-.05-.28-.51-.54-.98-.45.41-.81.66-1.06 1zm7.28.19c.23.24.52.71.68.67.41-.09.76-.42 1.13-.65-.2-.26-.4-.52-.74-.97-.42.38-.75.67-1.07.95zm182.64.57c.11.21.17.52.35.61.42.23.9.36 1.35.53l-1.35-1.53c-.11.13-.23.26-.35.39zm-182.26-7.74c-.24.2-.71.51-.68.59.16.37.47.68.72 1.01.2-.24.4-.48.64-.78-.26-.32-.47-.57-.68-.82zm-3.05 11.34c.01.25-.06.56.06.73.39.53.85 1.01 1.31 1.47.02.02.35-.26.53-.4-.42-.5-.81-1.03-1.27-1.5-.15-.16-.46-.16-.7-.23l.07-.07zM42.49 55.26c.04.28.4.51.61.76.25-.3.56-.56.7-.9.04-.1-.43-.4-.78-.71-.24.34-.57.63-.53.85zm-29.53 5.41c0-.25-.38-.5-.6-.76-.31.28-.75.52-.9.87-.1.23.22.64.56 1.5.61-.99.94-1.3.94-1.61zm12.15 17.48c-.07-.31-.43-.55-.66-.82-.21.23-.62.47-.6.67.03.31.36.58.69 1.04.27-.39.62-.69.57-.89zm182.92 2.89c-.36-.08-.74-.26-1.09-.22-.44.04-.86.25-1.28.39.23.33.4.88.7.95.36.09.81-.22 1.22-.36.14-.26.29-.51.45-.76zM52.85 86.28c-.39 0-.78.27-1.17.43.19.26.34.7.57.74.39.07.82-.11 1.51-.24-.47-.5-.69-.93-.91-.93zm198.99-.76c-.12-.02-.5.55-.44.64.17.26.49.53.78.58.23.04.51-.26 1.1-.61-.68-.31-1.04-.55-1.44-.61zM112 115.21c-.18-.28-.3-.68-.55-.79-.19-.08-.54.22-.82.36.22.26.43.52.63.75.31-.14.53-.23.74-.32zm173.87-67.86c-.27-.16-.53-.39-.83-.45-.14-.03-.52.32-.49.43.08.29.31.54.57.96.33-.42.54-.68.75-.94zm16.91 19.41c.05-.14-.19-.54-.29-.53-.26.01-.71.14-.73.28-.04.26.17.56.35 1.08.33-.39.58-.58.67-.83zm-22.47 44.72c.03.25.41.61.66.63.22.01.65-.38.65-.59 0-.24-.36-.49-.66-.85-.29.33-.68.6-.65.81zM41.88 88.62c.2.25.45.46.69.69.18-.22.36-.44.55-.65-.28-.18-.55-.35-.82-.52-.19.19-.45.45-.42.48zm255.49-13.61c-.24.01-.46.37-.69.58.23.21.44.55.69.58.23.03.5-.28.9-.54-.4-.3-.65-.63-.9-.62zM41.82 78.88c-.18-.01-.55.22-.55.33.01.29.19.58.29.87.29-.12.58-.25 1.73-.73-.82-.28-1.14-.45-1.47-.47zm-30.74-14.5c0 .14.43.43.52.38.26-.14.45-.42.66-.64-.23-.21-.46-.42-.84-.78-.17.47-.35.76-.34 1.04zm309.02-2.31c.18.25.33.52.54.74.02.02.48-.26.47-.31-.09-.28-.26-.54-.41-.81-.26.16-.43.27-.6.38zm-2.95 5.03c-.24.06-.55.48-.54.74 0 .22.4.58.64.6.3.02.63-.24 1.2-.49-.79-.54-1.1-.9-1.3-.85zM87.54 81.05c-.18-.02-.39.18-.59.28l.59.62c.14-.16.29-.32.43-.48-.14-.14-.27-.4-.43-.42zm195.14 4.69c.31.01.61-.26.92-.41-.25-.31-.44-.72-.76-.88-.16-.08-.56.29-1.33.74.55.27.86.55 1.17.55zM100.35 96.09c.18.24.34.66.55.68.29.03.61-.23.92-.37-.12-.24-.25-.48-.4-.78-.46.2-.76.33-1.07.47zm154.41-15.27c-.15-.06-.6.16-.6.22.03.29.11.74.29.8.25.09.61-.11 1.19-.26-.42-.38-.62-.65-.88-.76zM90.83 117.46c-.49-.34-.97-.68-1.46-1.02-.06.09-.12.19-.19.28.57.22 1.15.44 1.72.66l-.07.08zM266.32 53.3c.2.11.42.32.59.29.29-.05.55-.26.83-.41-.23-.2-.45-.41-.78-.7-.26.34-.45.58-.64.82zM47.57 51.21c-.02-.23-.44-.61-.65-.59-.27.02-.62.34-.72.61-.05.15.34.46.89 1.15.23-.53.5-.86.48-1.17zm266.03 3.47c-.17-.09-.44.01-.67.03.09.27.19.54.28.82.21-.09.41-.17.61-.26-.06-.21-.08-.51-.22-.59zM18.87 62.36c-.19-.11-.38-.3-.57-.3-.19 0-.39.19-.58.29.15.25.3.51.57.95.28-.44.43-.69.58-.94zm39.09 48.77c.04.18.28.41.46.44.12.02.29-.27.44-.43-.17-.15-.33-.31-.5-.47-.15.15-.43.34-.4.46zm-25.75-53.7c.24-.02.44-.4.66-.62-.22-.22-.44-.59-.67-.61-.23-.01-.48.34-.86.64.38.27.64.61.87.59zm246.53 1.06c.01.18.26.34.4.5l.5-.65c-.18-.12-.35-.23-.52-.35-.14.17-.39.34-.38.5zM98.92 110.8c-.14-.05-.56.2-.55.25.06.28.16.68.35.76.21.08.55-.15 1.07-.33-.41-.34-.61-.59-.87-.68zM48.61 62.21c-.16-.02-.36.18-.54.28l.6.63c.13-.16.25-.32.38-.48-.15-.15-.28-.4-.44-.43zm56.52 48.37c-.2 0-.41-.03-.6.01-.07.01-.1.19-.15.29.17.08.35.17.52.25.07-.19.15-.37.23-.55zm160.06 7.85c-.18-.01-.37.21-.56.33.13.17.26.47.4.48.18.01.37-.22.55-.34-.13-.17-.25-.47-.39-.47zm-15.7-27.95c.18.22.33.49.56.63.1.06.37-.18.56-.28-.15-.25-.3-.5-.46-.76-.29.19-.48.3-.66.41zM84.28 92.86c-.12-.16-.24-.44-.37-.44-.17-.01-.36.2-.54.31l.37.46.54-.33zM210.79 79.5c-.11-.2-.22-.39-.33-.59-.26.16-.52.31-.79.47.17.14.34.29.51.43.2-.1.4-.21.61-.31zm-128.23-.74c-.28.02-.54.29-.81.45.18.24.32.64.54.69.25.06.56-.2 1.7-.68-.79-.27-1.12-.48-1.43-.46zm239.24-2.51c-.39.52-.79 1.04-1.19 1.56.11.06.21.13.32.19.26-.61.53-1.21.8-1.82l.07.07zm-267.13.53c-.13.17-.36.35-.36.52 0 .13.34.39.46.35.17-.05.28-.31.41-.48l-.51-.39zm267.05-.61c.44-.34.88-.69 1.32-1.03-.13-.14-.27-.28-.41-.42-.28.51-.56 1.01-.84 1.52l-.07-.07zm-44.44-27.15c-.17.03-.29.3-.44.46.19.1.4.3.57.27.16-.02.29-.28.43-.44-.19-.1-.4-.32-.56-.29zm-5.4 1.98c-.17-.01-.35.16-.52.26.13.14.24.39.38.41.16.02.34-.17.52-.27-.13-.15-.25-.39-.38-.4zm34.85 1.17c-.5.32-.99.64-1.49.96.16.13.33.25.49.38l.93-1.41.07.07zm4.78 6.91c.03-.06-.04-.17-.06-.26-.13.07-.26.14-.38.21.07.06.13.12.2.18.08-.04.21-.06.24-.13zm-27.86 55.77c.03.01.21-.18.2-.22-.08-.17-.21-.32-.32-.47l-.37.4c.16.1.32.22.49.29zm-237.32-3.49c.04.11.06.27.13.31.08.03.21-.06.39-.13-.21-.08-.37-.13-.52-.18zm.92-56.45c-.06.09-.19.23-.17.25.12.14.28.26.42.38.06-.09.12-.17.18-.26-.14-.13-.29-.25-.43-.37zm.16 64.4c.03.01.23-.2.21-.25-.08-.18-.22-.34-.33-.51-.14.15-.28.3-.42.44.18.11.35.24.54.32zm59.85-2.54c-.15.01-.3.21-.45.32.18.09.36.25.54.24.15-.01.3-.2.45-.31-.18-.09-.36-.26-.54-.25zm179.54-65.6c-.02-.03-.27.01-.28.05-.04.18-.04.37-.04.56.18-.02.37-.05.55-.07-.08-.19-.14-.38-.23-.54zM35.99 69.25c-.06.08-.19.22-.17.24.12.13.26.24.4.36.06-.08.12-.16.19-.24l-.42-.36zm277.29 3.28c.14-.05.29-.1.43-.15-.06-.08-.1-.19-.18-.22-.08-.02-.18.05-.28.08l.03.29zM114.2 103.92c-.11-.17-.19-.47-.33-.5-.2-.04-.43.12-.65.2.12.19.23.37.35.56.21-.09.42-.17.63-.26zM67.11 82.73c-.14.24-.27.49-.41.73.21.05.45.19.63.14.15-.05.22-.33.33-.5-.19-.13-.37-.25-.55-.37zm56.48 22.15c.16-.06.31-.12.47-.17-.06-.08-.11-.21-.19-.23-.09-.02-.2.06-.3.1.01.09.01.2.02.3zm189.2-54.94l-.98-.92c-.07.14-.14.27-.22.41.42.15.85.3 1.27.45l-.07.06zm-296.92.19c.03.01.22-.18.2-.22-.08-.17-.21-.32-.33-.47l-.39.39c.17.11.33.23.52.3zm231.1 33.13c.16.13.31.35.47.36.19.01.39-.17.59-.27-.16-.13-.32-.26-.47-.39-.2.1-.4.2-.59.3zM52.68 66.22c-.07-.03-.19.04-.29.06l.24.42.19-.22c-.04-.09-.06-.23-.14-.26zm251.03 18.84c.21.01.42.04.62.01.05-.01.12-.28.08-.32-.14-.14-.33-.23-.5-.33-.08.21-.14.43-.2.64zM28.16 63.96c-.16 0-.32.28-.49.43.16.15.31.41.48.43.15.01.33-.25.54-.43-.19-.16-.36-.42-.53-.43zm271.88-1.66c-.06.09-.19.24-.18.26.13.14.28.26.43.38.06-.09.12-.18.19-.27-.16-.13-.3-.25-.44-.37zm-209.9 46.72c.01.1 0 .27.04.28.17.06.36.07.54.1-.01-.1-.02-.2-.04-.3-.18-.02-.36-.05-.54-.08zm159.67-.03c-.06.14-.13.27-.19.4.09.01.21.06.27.02.07-.04.09-.16.13-.25-.08-.05-.14-.11-.21-.17zm-182.59 9.77c.03.1.07.19.1.29.1-.04.19-.08.36-.14-.19-.07-.32-.11-.46-.15zm10.37-.15c-.07-.03-.19.05-.3.09.04.1.05.24.12.28.06.03.19-.05.28-.08-.02-.11-.03-.26-.1-.29zm171.72 1.2l-.22-.09.01.27.21-.18zm63.55-69.93c.18.38.35.76.53 1.14.09-.06.19-.11.28-.17l-.88-.91.07-.06zm-6.21 2.22c.34-.07.68-.13 1.02-.2-.06-.14-.11-.28-.17-.42l-.78.69-.07-.07zm-276.6 8.43c.03.09.05.17.08.25.09-.03.17-.06.32-.11-.17-.06-.29-.1-.4-.14zm220.63 6.6c-.32-.11-.64-.23-.95-.35.3.14.59.28.89.41l.06-.06zm45.07.98c-.01 0-.07.19-.11.3.2.07.4.14.61.19.01 0 .07-.19.11-.3-.21-.08-.41-.15-.61-.19zm-25.69 11.81c.03-.07-.02-.18-.04-.27-.13.08-.26.15-.39.23.06.07.12.13.17.19.1-.06.22-.09.26-.15zm10.33 10.94l-.23-.15-.08.22.31-.07zm-52.21 11.09c-.03-.02-.19.09-.29.14.13.16.24.33.39.47.02.02.17-.1.26-.16-.12-.15-.22-.32-.36-.45zm-126.63 7.66c-.13-.15-.25-.32-.39-.45-.02-.02-.18.1-.27.16l.36.45c.1-.06.2-.11.3-.16zm144.11 7.49l.48-.18c-.07-.08-.12-.21-.2-.23-.09-.02-.2.06-.3.1.01.1.01.2.02.31zm-4.99-3.83c-.07.17-.14.33-.22.5.11.01.25.07.32.02.08-.05.11-.2.16-.31-.08-.07-.17-.14-.26-.21zm3.12-5.51l.08.27.22-.23-.3-.04zm57.58-35.65l.23.12V72l-.23.11zm-23.45 37.29l.14-.27h-.28l.14.27zM27.25 68.33l-.3-.14v.28l.3-.14zm269.17-3.91l-.24.1.22.13.02-.23zm24.35-9.33c-.02-.03-.17.04-.25.06.03.1.04.22.1.29.02.03.17-.04.25-.06-.03-.1-.04-.22-.1-.29zm-3.95-5.08l.2.03-.07-.22-.13.19zm-68.38 55.81l-.21-.11v.21l.21-.1zm23.71 18.7c.02.07.04.15.06.23.08-.02.16-.05.32-.09-.17-.07-.28-.11-.38-.14zM69.45 99.71l.13-.27h-.26l.13.27zm-32-50.49l.15.05-.1-.07-.05.02zm231.1 40.55c.26.26.51.51.77.76l.06-.06c-.25-.26-.51-.52-.76-.78l-.07.08zm.07-.07l-.07.07.07-.07zm-117.67 37.16c-1.04.22-2.07.45-3.11.64-.66.12-1.34.17-2 .25.34.74.48 1.77 1.05 2.19 2.85 2.08 6.01 2.73 9.52 1.92 1.51-.35 3.13-.27 4.71-.31 2.04-.05 4.1-.17 6.13.01 3.32.28 7.12-2.38 9.92 1.6.35.49 1.65.61 2.41.44 3.61-.77 5.96-3 6.88-6.59.65-2.51-.38-4.17-2.89-4.63-.35-.07-1.2.61-1.17.7 1.1 3.03-1.24 1.98-2.46 2.03-1.87.07-3.75-.11-5.61-.04-.66.03-1.3.48-1.95.73.37.55.66 1.2 1.14 1.62.34.3.94.31 1.43.45-.26.43-.52.86-.77 1.29-2.91-.58-6.6-.27-8.53-1.96-2.97-2.61-6.55-1.35-9.55-2.98-1.8-.98-4.28-.7-7.02-1.05.93 1.84 1.4 2.76 1.87 3.69zm23.1-39.43c.05-.24.09-.49.15-.73l.9-3.68c-1.14.08-2.35-.04-3.41.29-5.18 1.61-10.04.67-14.79-1.56-.48-.22-1.08-.19-1.62-.27.01.71-.26 1.81.09 2.05 3 2.16 4.53 4.22.57 7.02-.31.22.55 2.21 1.01 3.31.11.26 1.15.44 1.17.39.4-.88.77-1.78 1.02-2.71.23-.83.13-1.8.5-2.54.28-.56 1.07-1.17 1.65-1.2.43-.02 1.27.85 1.29 1.36.15 3.17 1.61 2.39 3.33.79-.24 1.7-.63 2.99-.5 4.24.06.55 1.14 1 1.76 1.5.41-.63 1.3-1.39 1.16-1.85-.63-2.19.35-2.35 2.1-2.14.22.03.92-1.62.82-1.69-1.34-.95-2.78-1.77-4.33-2.69 2.31-2.09 4.81.3 7.21.04l-.08.07zm-12.62 33.67c2.23 1.7 4.24 4.73 7.3 1.13.13-.15.48-.21.71-.18 4.21.49 7.69-1.42 11.28-3.19 1.33-.66 3.54-1.69 3.78 1.49.01.18 1.2.28 1.84.41-.19-1.78-.02-3.71-.68-5.29-.67-1.62-2.23-1.04-3.51-.25-1.06.65-2.19 1.18-3.27 1.78-5.94 3.25-12.01 4.71-18.51 1.51-1.08-.53-2.42-.73-3.63-.69-.6.02-1.42.83-1.68 1.47-.16.41.38 1.35.86 1.72.65.49 1.87.43 2.27 1 2.2 3.13 2.53.43 3.31-.96l-.07.05zm-6.23-11.31c.79.73 1.55 1.5 2.38 2.18.65.53 1.55.8 2.08 1.41 3.22 3.76 5.19 4.31 9.72 2.56.45-.17.94-.32 1.41-.35.82-.06 1.65-.02 2.48-.03-.8-.62-1.52-1.48-2.42-1.81-1.11-.41-2.4-.29-3.57-.57-2.59-.62-5.19-1.24-7.72-2.06-1.34-.44-2.54-1.3-3.81-1.96-.18.21-.37.42-.55.63zm15.38-50.14c-2.95-.35-5.89-.72-8.85-1.02-.19-.02-.61.49-.64.79-.14 1.34-.42 2.74-.17 4.03.14.71 1.14 1.43 1.92 1.74.28.11 1.06-.92 1.56-1.48.41-.45.66-1.25 1.14-1.4 1.64-.51 3.36-.8 5.04-1.18v-1.48zm-28.71 75.99c-1.12-1.01-2.19-2.11-3.4-3.01-1.06-.79-2.27-1.38-3.43-2.02-.74-.41-1.52-.76-2.27-1.14.06.94-.01 1.9.21 2.8.13.53.62 1.08 1.1 1.41 1.71 1.16 3.43 2.33 5.26 3.28.56.29 1.48-.15 2.24-.25.1-.36.19-.71.29-1.07zm56.63-6.51c-.85.78-1.68 1.59-2.57 2.32-1.05.87-2.12 1.72-3.23 2.49-2.63 1.84-2.77 2.42-1.07 5.84 2.57-3.34 5.09-6.6 7.6-9.87-.24-.26-.49-.52-.73-.78zM149.24 117c1.09.48 2.12 2.37 3.25.43.19-.32-1.52-1.84-2.46-2.68-.43-.39-1.13-.48-1.71-.7-2.19-.8-3.83.16-4.08 2.52-.07.66.3 1.37.47 2.06.55-.32 1.11-.63 1.64-.98.58-.37 1.14-.78 1.62-1.11.58.2.94.31 1.27.46zm-3.87-26.64c-.05.69-.27 1.43-.1 2.07.18.7.72 1.31 1.1 1.97.37-.65 1.02-1.29 1.05-1.96.15-2.92-1.55-5.17-4.68-6.25-.28 1.95-.56 3.84-.83 5.73.32.07.63.15.95.22.57-.68 1.15-1.37 1.72-2.06.26.08.53.18.79.28zm17.87 15.28c-2.72-1.03-5.34-2.02-8.24-3.11 2.15 4.11 5.12 5.19 8.24 3.11zm64.26 24.26c1.94 2.04 3.85 4.12 5.86 6.1.32.31 1.07.19 1.63.26.02-.44.23-1.08.02-1.28-2.16-2.07-4.4-4.08-6.61-6.1-.3.34-.59.68-.9 1.02zm-53.2-24.52c.52-.35.65-1.26.96-1.91-.76-.16-1.6-.59-2.26-.4-1 .29-1.94.94-2.79 1.58-.39.29-.83 1.08-.69 1.36.23.44.92.63 1.36.89 1.25-.54 2.44-.87 3.42-1.52zm-39.62.07c.76.44 1.51.92 2.3 1.31.54.27 1.13.52 1.72.58.52.06 1.14-.05 1.57-.32.15-.1.04-1.04-.24-1.32-.69-.7-1.53-1.23-2.42-1.92-1.2.68-2.07 1.17-2.93 1.67zm8.67 18.78c.54.24 1.37.84 1.58.67 1.02-.8 1.86-1.81 2.77-2.74-.39-.38-1.02-1.16-1.15-1.09-1.04.6-1.99 1.36-2.97 2.07-.07.36-.15.72-.23 1.09zm27.63 41.16h-5.09c.01.25.01.51.02.76h5.12c-.02-.26-.04-.51-.05-.76zm-36.29-92.16c-1.5-1.65-3.01-3.29-4.51-4.94-.2.21-.41.42-.61.62l4.89 4.56c.07-.08.15-.16.23-.24zm29.71 61.83l-5.43.87.12.77c1.78-.16 3.57-.31 5.35-.47-.01-.39-.02-.78-.04-1.17zm-15.14-57.93c.92.99 1.84 1.97 2.76 2.96.3-.28.6-.55.9-.83l-2.67-2.97-.99.84zm56.14 71.06v-3.56c-.32.02-.92.03-.92.05-.01 1.14.02 2.27.06 3.41.28.03.57.06.86.1zM162.59 46.38c-.36-.15-.96-.53-1.06-.43-.62.64-1.13 1.39-1.68 2.1.34.26.75.79 1.01.73.95-.22 1.84-.65 2.76-1-.35-.47-.69-.93-1.03-1.4zm6.94-.25c1.11-1.27.76-2.29-.68-2.87-.41-.17-1.07.27-1.62.43.61.66 1.22 1.32 1.84 1.98.17.18.35.35.53.52l-.07-.06zm20.26 42.03c.04-.29-.95-1.04-1.09-.96-.57.34-1 .94-1.48 1.44.41.39.83.79 1.52 1.44.48-.8.99-1.33 1.05-1.92zm-20.42 44.61c-.47.08-.87.6-1.31.93.49.26.98.71 1.47.73.46.02.93-.44 1.96-.99-1.09-.37-1.64-.74-2.12-.67zm39.81 40.19c-.08-1.05-.16-2.1-.25-3.14l-.74.06v3.14l.99-.06zm-40.42-20.54h-4.96c.01.11.03.21.04.31h4.95l-.03-.31zm12.89-74.6c-1 .98-1.99 1.96-2.99 2.94l-.06-.06c2.4.44 2.65-1.28 2.97-2.94l.08.06zm-57.02 94.38c.09.88.19 1.76.28 2.64l.81-.09v-2.6c-.36.02-.72.03-1.09.05zm30.69-121.56c.03.39.44.75.69 1.13.35-.39.86-.73.99-1.18.08-.26-.46-.7-.96-1.39-.37.7-.75 1.09-.72 1.44zm4.83 119.83c-.33.02-.86.53-.86.82 0 .38.38.94.72 1.06.25.09.71-.39 2.05-1.23-.97-.35-1.45-.68-1.91-.65zm3.19-95.71c-.33-.02-.7.44-1.05.68.29.35.52.88.89 1 .3.1.76-.29 1.5-.62-.66-.55-.98-1.04-1.34-1.06zm-37.81 63.73c-.28.26-.67.48-.8.81-.07.17.33.52.52.78.24-.18.48-.36.78-.57-.2-.41-.35-.72-.5-1.02zm.86 6.95c.01-.26-.37-.52-.57-.79-.3.28-.73.52-.85.86-.08.22.29.6.54 1.06.49-.61.87-.87.88-1.13zm1.96-13.98c.02-.29-.3-.6-.46-.9-.32.28-.83.51-.91.84-.08.33.28.77.67 1.71.41-.9.68-1.27.7-1.65zm53.22-53.71c.46-.73.92-1.46 1.38-2.18-.21-.09-.41-.18-.62-.27-.23.84-.45 1.68-.68 2.52l-.08-.07zm-7.44 9.6c.23.64.47 1.28.7 1.92.27-.19.53-.38.8-.57l-1.57-1.27.07-.08zm-26.96-14.29c-.07-.09-.59.02-.6.08-.05.32-.11.73.05.97.1.15.57.06 1.09.09-.24-.54-.34-.88-.54-1.14zm48.17.65c.04.25.42.46.65.68.26-.29.53-.57.79-.86-.26-.19-.51-.38-.86-.64-.26.33-.62.6-.58.82zm-27.56 26.38c-.05-.25-.48-.6-.71-.58-.23.02-.59.43-.61.69-.03.29.27.61.54 1.15.47-.73.82-1.03.78-1.26zm-14.89 7.84c.19.19.41.56.57.54.29-.05.63-.28.77-.53.07-.11-.28-.47-.5-.8-.36.34-.6.56-.84.79zm-1.27-24.21c-.18.06-.29.29-.43.45.22.14.44.27.67.41.08-.19.15-.39.23-.58-.16-.1-.36-.32-.47-.28zm-1.27 14.16l-.63.3c.13.27.27.54.4.8.17-.15.33-.3.49-.46-.08-.21-.17-.43-.26-.64zm-39.61-52.1c-.02-.01-.23.17-.22.23.05.2.17.39.26.58l.42-.45c-.14-.11-.29-.25-.46-.36zM171 71.86c.08-.18-.03-.45-.06-.68-.26.12-.54.21-.75.39-.05.05.16.39.25.6.2-.11.49-.16.56-.31zm20.21 9c-.05.16.13.4.21.6.18-.1.47-.18.5-.32.04-.18-.12-.41-.19-.62-.19.1-.48.18-.52.34zm-37.75 64.86c.15-.17.38-.33.41-.52.02-.12-.26-.29-.41-.43-.15.17-.3.35-.43.5.15.15.29.3.43.45zm15.92-.79c.07.17.13.33.2.5.09-.06.23-.12.25-.2.02-.09-.07-.21-.11-.31-.12 0-.23 0-.34.01zm-14.73 3.57c-.03-.04-.29 0-.3.04-.05.18-.04.37-.05.55l.59-.06c-.08-.18-.14-.37-.24-.53zM108.76 43.7c0 .08.08.17.13.26.1-.11.2-.21.3-.32-.08-.04-.17-.08-.23-.12-.08.06-.2.12-.2.18zm51.31-.14c-.07.15-.13.3-.2.45.1.02.23.09.28.05.07-.05.09-.18.14-.3-.07-.06-.14-.13-.22-.2zm-58.49 88.11c-.06-.03-.18.04-.27.06l.21.39c.06-.07.12-.13.18-.2-.04-.09-.06-.22-.12-.25zm64.57 46.98c-.09-.21-.18-.42-.27-.64-.25.12-.49.23-.74.34.12.18.24.35.37.53.21-.07.43-.15.64-.23zm-3.39-32.64c.03.1.06.2.08.3.1-.04.2-.08.39-.15-.2-.06-.34-.1-.47-.15zm7.76-78.93c0 .02.16.07.24.11.05-.17.12-.35.15-.53 0-.02-.16-.07-.25-.1-.05.17-.11.34-.14.52zm13.39 1.14c-.02-.02-.18.1-.27.16.11.16.22.32.35.46.01.01.16-.11.25-.17-.1-.16-.2-.32-.33-.45zm-4.01 33.65c-.08-.05-.21-.02-.33-.03.03.14.06.28.1.42l.3-.12c-.02-.09-.01-.24-.07-.27zm-31.87-33.2l.1.26.14-.23-.24-.03zm58.67 88.76l.1-.22h-.2l.1.22zM178.6 80.7c-.15.09-.29.18-.44.28.07-.04.14-.1.21-.13.09-.04.2-.06.3-.08l-.07-.07zm-9.07-34.57l.06.06-.06-.06zM83.27 62c3.68-1.24 6.3 1.33 9.27 2.6 3.7 1.59 7.36 3.26 11.04 4.9.12-1.46.06-2.57-1.93-2.81-1.39-.17-2.71-1.02-4.04-1.63-2.53-1.16-5.07-2.3-7.53-3.59-.63-.33-1-1.18-1.49-1.79-1.84.62-4.82-1.37-5.32 2.32zm-1.16-3.01c.05-.03-.14-.81-.33-.87-2.54-.75-5.1-1.47-7.68-2.1-.28-.07-.93.47-1.01.81-.07.29.38.94.72 1.04 2.1.65 4.24 1.2 6.69 1.86.39-.16 1.02-.41 1.61-.74zm-62.1 26.43c-.2-1.4-.41-2.8-.61-4.19-.76.27-2.21.64-2.18.8.18 1.26.64 2.48 1.02 3.7.59-.1 1.18-.2 1.77-.31zm135.84 43.12c-.45-.28-.88-.72-1.37-.78-.26-.03-.88.62-.84.89.07.45.54.83 1.04 1.51.53-.74.85-1.18 1.17-1.62zm27.1.28c-.23-.19-.56-.58-.68-.52-.35.16-.61.5-.9.77.25.18.51.37.8.58.32-.33.55-.58.78-.83zm-21.52-7.72c-.32-.12-.63-.26-.96-.37-.05-.02-.15.1-.22.16l1.25.15-.07.06z"/></svg>
