<svg xmlns="http://www.w3.org/2000/svg" version="1.1" id="Layer_1" x="0" y="0" width="332" height="208" viewBox="0 0 332 208" enable-background="new 0 0 332 208" xml:space="preserve"><path fill-rule="evenodd" clip-rule="evenodd" d="M115.69 92.07c1.19-0.75 2.34-2.07 3.57-2.15 3.34-0.22 6.72 0.08 10.08 0.18 1.62 0.05 3.26 0.31 4.85 0.13 2.36-0.27 1.16-1.12 1.31-2.87 0.29-3.32-4.11-1.42-3.48-4.1 -0.46 0.08-0.94 0.11-1.39 0.24 -1.35 0.4-2.43 0.76-1.31-1.38 0.75-1.44-0.35-1.39-1.28-1 -0.56 0.23-1 0.79-1.56 0.95 -0.4 0.12-0.92-0.17-1.39-0.28 0.14-0.41 0.29-0.81 0.44-1.22 0.21-0.56 0.42-1.12 0.63-1.68 -0.71-0.05-1.48-0.31-2.11-0.11 -1.08 0.34-2.07 0.96-3.09 1.47 -0.14-0.27-0.28-0.54-0.43-0.81 1.66-1.19 3.31-2.37 5.53-3.96 -2.46-2.01-4.76-3.89-7.1-5.8 2.36-0.4 5.74 1.6 7.54 4.03 1.83 2.48 3.89 4.79 5.91 7.13 0.35 0.4 0.98 0.55 1.48 0.82 0.22-0.65 0.77-1.43 0.59-1.94 -0.37-1-1.05-1.94-1.76-2.76 -4.58-5.27-9.16-10.53-13.82-15.73 -3.07-3.43-6.54-6.54-9.34-10.17 -3.25-4.22-5.91-8.9-8.96-13.29 -0.95-1.37-2.12-2.79-3.53-3.6 -7.61-4.36-15.8-6.57-24.64-6.16 -1.76 0.08-2.67-0.38-1.46-2.38 0.64-1.05 0.76-2.43 1.17-3.86 8.6 2.69 18.05 2.75 26.06 7.79 0.53 0.33 1.1 0.59 1.63 0.91 3.04 1.85 3.03 1.85 5.24 0.25 3.21 5.63 6.39 11.34 9.71 16.97 1.83 3.1 3.88 6.08 5.89 9.07 0.55 0.82 1.21 1.63 1.99 2.21 4.7 3.48 9.5 6.83 14.16 10.37 1.53 1.17 2.69 1.06 3.91-0.19 2.44-2.49 4.86-5 7.25-7.54 0.96-1.02 1.82-2.13 2.73-3.2 -1.42-0.06-2.85-0.11-4.27-0.17 -0.62-0.02-1.25-0.03-1.87-0.08 -4.04-0.33-7.5-2.5-7.94-5.7 -0.46-3.31 1.24-6.25 3.95-7.93 3.57-2.2 7.54-3.74 11.31-5.63 1.13-0.57 2.13-1.38 3.19-2.08 -0.88-0.96-1.63-2.12-2.67-2.86 -3.77-2.63-7.98-4.3-12.28-5.95 -5.87-2.25-11.67-4.98-16.97-8.34 -3.35-2.12-5.9-5.64-8.47-8.8 -1.49-1.83 0.23-2.22 1.76-2.27 5.71-0.21 9.98 2.45 13.4 6.76 0.86 1.08 1.38 2.15 3.27 1.49 0.91-0.32 2.75 0.44 3.44 1.29 3.46 4.28 8.59 5.89 13.24 7.8 4.31 1.77 7.56 4.04 9.98 7.9 2.39 3.81 6.88 4.45 10.77 1.87 4.44-2.95 8.91-5.84 13.46-8.62 1.78-1.09 3.85-1.68 5.67-2.72 2.22-1.27 4.18-3.04 6.48-4.11 6.44-3 11.72-8.32 18.95-9.68 1.08-0.2 2.3 0.36 3.45 0.56 -0.49 1.03-0.85 2.15-1.5 3.07 -3.11 4.39-7.59 6.7-12.61 8.2 -0.91 0.27-1.68 0.98-2.56 1.4 -1.74 0.83-3.52 1.57-5.27 2.38 -4.38 2.04-8.79 4.01-13.1 6.19 -1.96 0.99-3.71 2.4-5.51 3.68 -0.76 0.55-1.39 1.28-2.08 1.93 0.9 0.48 1.76 1.09 2.71 1.41 3.19 1.08 6.52 1.81 9.58 3.16 2.11 0.93 4.1 2.44 5.7 4.11 2.8 2.92 2.96 5.22 1.23 8.49 -1.55 2.94-4.22 4.26-7.81 3.95 -1.17-0.1-2.36-0.06-3.54-0.08 0.62 1.29 1.05 2.73 1.91 3.82 1.93 2.43 4.1 4.67 6.14 7.02 1.07 1.23 1.9 1.5 3.42 0.32 3.23-2.51 6.83-4.52 10.04-7.05 2.8-2.21 5.64-4.56 7.79-7.37 4.23-5.51 8.33-11.18 11.86-17.15 2.7-4.58 7-6.71 11.34-8.5 6.23-2.56 12.83-4.23 19.27-6.29 0.59-0.19 1.13-0.52 1.72-0.71 0.75-0.23 1.53-0.37 2.3-0.56 -0.14 0.65-0.37 1.29-0.41 1.95 -0.03 0.44 0.1 0.96 0.34 1.33 1.47 2.23-0.28 2.1-1.64 2.33 -2.89 0.5-5.9 0.68-8.64 1.62 -4.78 1.64-9.4 3.73-14.07 5.68 -0.52 0.22-0.98 0.71-1.31 1.18 -3.82 5.47-7.53 11.03-11.46 16.42 -1.38 1.89-3.29 3.39-4.95 5.09 -6.17 6.29-12.35 12.58-18.47 18.92 -0.54 0.56-0.87 1.51-0.94 2.31 -0.07 0.8 0.32 1.63 0.51 2.44 0.78-0.25 1.73-0.29 2.31-0.78 2.97-2.44 5.71-5.17 8.78-7.47 3.92-2.93 6.96-2.09 9.15 2.93 -2.34-0.95-4.06-1.65-6.24-2.53 0.7 0.92 1.24 1.5 1.62 2.16 0.31 0.55 0.43 1.2 0.63 1.81 -0.7 0.04-1.46 0.28-2.08 0.07 -0.97-0.33-2.15-1.62-2.68-1.36 -2.37 1.17-4.54 2.75-6.79 4.18 1.29 4.84-3.32 3.5-5.23 5 -0.58 0.45-1.34 0.74-1.77 1.29 -0.48 0.62-0.67 1.46-0.99 2.2 0.77 0.26 1.55 0.73 2.32 0.73 5.62 0 11.31-0.65 16.83 0.04 3.8 0.47 8.13 0.44 11.3 3.48l0.07-0.07c-2.91-0.48-5.8-1.11-8.73-1.41 -3.47-0.35-6.96-0.48-10.44-0.59 -2.62-0.08-5.25-0.11-7.85 0.11 -0.87 0.07-2.17 0.79-2.44 1.52 -1.3 3.58-2.37 7.26-3.43 10.93 -0.52 1.81 0.28 2.36 2.06 2.09 2.15-0.33 4.36-0.36 6.54-0.34 1.23 0.01 2.45 0.59 3.67 0.56 1.9-0.04 2.88 0.23 3.11 2.57 0.15 1.46 1.62 3.03 2.88 4.1 7.77 6.61 15.68 13.06 23.47 19.63 3.02 2.54 5.89 5.26 8.78 7.94 0.4 0.37 0.48 1.05 0.83 1.49 0.29 0.36 0.73 0.7 1.16 0.83 1.21 0.37 2.65 0.31 3.63 0.98 5.7 3.88 11.76 6.32 18.83 5.77 0.58-0.04 1.48 1.24 1.8 2.07 0.13 0.33-0.94 1.62-1.45 1.6 -2.31-0.06-4.61-0.42-6.91-0.67 -8.9-0.99-15.79-6.15-22.82-11.02 -0.51-0.35-0.92-0.98-1.47-1.13 -7.76-2.12-11.42-9.27-17.11-13.92 -5.2-4.26-10.22-8.74-15.39-13.04 -4.87-4.05-4.9-3.98-9.9-0.35 -0.68 0.49-1.63 0.61-2.32 1.09 -0.66 0.46-1.65 1.18-1.63 1.75 0.15 3.84 0.42 7.68 0.87 11.49 0.22 1.8 1.42 2.26 2.97 1.15 0.51-0.36 0.9-0.99 1.44-1.17 2.04-0.65 3.76-3.77 5.91-2.03 2.07 1.67 3.67 4.08 3.88 7.27 0.45 6.81 0.94 13.68 2.29 20.34 0.75 3.69 0.86 7.35 1.44 10.98 1.43 9.04 3.37 17.98 11.55 23.95 3.04 2.22 4.79 6.13 8.95 7.01 0.14 0.03 0.27 1.61-0.01 1.77 -1.04 0.62-2.29 1.36-3.39 1.26 -0.93-0.08-1.85-1.18-2.63-1.97 -4.63-4.69-9.49-9.2-13.75-14.21 -2.96-3.48-4.86-7.59-4.99-12.58 -0.12-4.57-1.66-9.08-2.2-13.66 -0.7-6.04-1.01-12.13-1.55-18.19 -0.08-0.9-0.56-1.76-0.85-2.65 -0.85 0.57-1.94 0.98-2.52 1.76 -1.27 1.69-2.27 3.57-3.41 5.36 -0.4 0.62-0.8 1.59-1.34 1.71 -3.48 0.72-3.48 3.53-3.82 6.09 -0.38 2.86-0.78 5.55-3.01 7.81 -1.13 1.15-1.29 3.19-2.12 4.7 -2.3 4.13-4.34 8.5-7.23 12.18 -2.32 2.95-5.59 5.24-8.71 7.44 -2.23 1.58-4.49 0.74-6.33-1.26 -5.94-6.44-10.66-13.64-14.05-21.74 -0.53-1.26-1.78-2.2-2.62-3.35 -0.63-0.86-1.25-1.77-1.63-2.75 -0.31-0.79-0.32-1.72-0.36-2.59 -0.18-3.88-1.81-6.55-5.36-8.57 -2.38-1.35-4-4.01-6.01-6.04 -0.49-0.49-1.18-0.78-1.78-1.16 -0.31 0.61-0.87 1.21-0.9 1.83 -0.31 7.85-0.63 15.71-0.75 23.56 -0.06 3.86 0.18 7.74 0.44 11.6 0.21 3.06 0.66 6.1 1.03 9.43 -1.98-1.42-3.24-0.36-4.34 1.35 -3.58 5.52-9.43 8.39-14.47 12.18 -2.96 2.22-6.25 4-9.35 6.05 -1.21 0.8-2.31 1.75-3.58 2.73 0.01 0-0.33 0-0.42-0.15 -2.4-4.15-2.27-3.89 2.31-6.19 2.92-1.46 5.38-3.85 8.03-5.83 2.5-1.87 4.36-4.83 8.06-4.7 0.36 0.01 0.76-0.73 1.12-1.14 1.85-2.13 4.57-4.02 5.28-6.49 0.66-2.31-1.15-5.21-1.26-7.88 -0.21-4.98 0.01-9.98 0.1-14.98 0.01-0.76 0.32-1.52 1.04-2.24 0.57 4.74 1.13 9.48 1.7 14.22 2.22-1.77 1.82-3.88 1.52-5.84 -0.65-4.29-1.61-8.54-2.23-12.83 -0.3-2.08-0.35-4.25-0.09-6.33 0.78-6.07 1.42-12.18 4.85-17.58 1.19-1.87 2.37-2.09 3.96-1.04 1.98 1.3 3.93 2.66 5.73 4.19 1.63 1.39 2.51 0.78 2.96-0.88 0.39-1.43 1-3.15 0.55-4.39 -1.34-3.66-0.08-6.79 1.26-9.99 0.69-1.63 0.63-1.92-1.48-1.92 -2.18 0.01-4.49-1.08-6.5-2.16 -1.85-0.99-3.02-1.02-4.56 0.54 -6.99 7.12-14.06 14.16-21.18 21.15 -3.57 3.51-7.03 6.97-8.86 11.85 -0.71 1.91-2.57 3.38-3.91 5.05 -0.37-0.22-0.74-0.44-1.1-0.66 0.86-1.9 1.72-3.79 2.97-6.58 -2.16 1.07-3.66 1.67-5.02 2.5 -7.92 4.84-16.75 7.36-25.56 9.83 -2.64 0.74-5.6 0.48-8.41 0.43 -0.61-0.01-1.54-0.99-1.68-1.66 -0.1-0.49 0.75-1.47 1.39-1.73 1.01-0.41 2.2-0.39 3.3-0.59 3.66-0.65 7.31-1.33 10.97-1.98 0.72-0.13 1.52-0.4 2.18-0.22 1.53 0.42 2.47 0.14 3.45-1.26 0.72-1.04 2.27-2.35 3.25-2.2 3.09 0.47 5.01-2.97 8.06-2.03 0.84-2.58 5.56-1.5 5.1-5.51 -0.1-0.82 1-1.98 1.8-2.68 3.48-3 7.13-5.82 10.59-8.85 3.75-3.28 7.36-6.71 11.01-10.1 0.34-0.31 0.79-0.91 0.69-1.22 -1.16-3.5 2.54-2.87 3.78-4.27 0.66-0.74 1.86 0.16 1.27 1.56 -0.23 0.54-0.59 1.03-0.89 1.55 0.2 0.18 0.41 0.37 0.61 0.55 0.71-0.84 2.1-1.75 2.01-2.49 -0.52-4.43 3.34-4.04 5.59-5.27 1.5-0.82 3.32-1.04 4.95-1.67 0.46-0.18 0.75-0.82 1.12-1.25 -0.36-0.27-0.69-0.62-1.09-0.8 -2.11-0.93-4.21-1.89-6.37-2.68 -1.79-0.65-3.66-1.08-5.93-1.74 1.92-1.67 3.56-1.39 5.25-0.47 1.62 0.89 3.19 1.89 4.87 2.64 0.71 0.32 1.65 0.11 2.48 0.15 -0.02-0.69 0.1-1.41-0.08-2.05 -1.67-5.89-1.69-5.88-8.08-5.5 -4.36 0.26-8.73 0.48-13.1 0.72L115.69 92.07zM83.83 61.8c1.15-1.48 3.21-0.4 4.45-1.59 0.08-0.15 0.15-0.3 0.23-0.45 -0.86-0.64-1.63-1.49-2.59-1.87 -2.28-0.89-4.69-1.47-6.99-2.32 -6.11-2.26-12.19-4.64-18.31-6.88 -2.41-0.88-4.91-1.56-7.39-2.24 -3.31-0.91-6.63-1.76-9.96-2.58 -4.19-1.03-8.36-2.14-12.59-2.92 -1.37-0.25-2.92 0.39-4.38 0.65 -1.57 0.28-3.12 0.78-4.7 0.86C14.51 42.82 7.75 49.22 6.39 56.18c-0.57 2.93-0.46 5.62 0.28 8.29 1.14 4.1 2.63 8.11 4.03 12.14 0.12 0.35 0.77 0.77 1.11 0.72 0.37-0.05 0.93-0.59 0.96-0.95 0.06-0.82 0.07-1.79-0.3-2.48 -1.51-2.82-1.57-2.79 1.53-3.51 0.61-0.14 1.3-0.14 1.8-0.45 1.15-0.71 2.21-1.58 3.3-2.38 -1.24-0.35-2.47-0.94-3.72-1.01 -1.91-0.1-4.66 0.97-5.56 0.06 -1.2-1.21-1.01-3.83-1.31-5.87 -0.08-0.53 0.09-1.48 0.41-1.62 2.39-1.04 2.83-2.22 0.57-3.92C9.36 55.11 9.46 54.5 9.62 54.23c1-1.63 2.04-3.24 3.1-4.83 1.09-1.63 2.4-2.9 4.6-2.48l-0.07 0.08c0.82-0.51 1.58-1.19 2.47-1.47 0.9-0.29 2.24 0.2 2.85-0.3 3.57-2.98 7.69-0.71 11.48-1.35 0.6-0.1 1.36 0.8 2.05 1.23 -0.37 0.57-0.64 1.24-1.11 1.69 -1.43 1.36-2.94 2.63-4.01 3.57 2.01-0.35 4.27-0.76 6.54-1.16l-0.06 0.02c-0.39-3.07 2.43-2.96 4.06-4 0.13-0.08 1.25 0.81 1.24 1.22 -0.09 2.62 1.57 1.93 2.69 1.3 1.88-1.05 3.46-1.24 5.06 0.39 0.24 0.24 0.67 0.33 1.03 0.42 2.87 0.73 5.77 1.33 8.59 2.2 2.94 0.9 5.82 2.02 8.7 3.11 1.6 0.61 1.81 1.47 0.43 2.72 -1.47 1.34-2.77 2.86-4.15 4.3 0.02 0.26 0.04 0.52 0.06 0.78 2.05-0.36 4.2-0.43 6.11-1.15 2.15-0.81 3.34-0.48 4.67 1.46 0.99 1.45 2.76 2.37 4.22 3.46 0.21 0.16 0.92 0.08 0.98-0.06 0.15-0.37 0.21-0.89 0.06-1.25 -1.07-2.53-1.09-2.53 2.12-2.19C83.5 61.88 83.66 61.84 83.83 61.8zM87.62 103.62c-1.47-0.64-2.88-1.6-4.41-1.87 -3.93-0.7-7.8-2.06-11.71 0.92 -2.54 1.94-5.95 1.76-8.85 0.11 -1.34-0.76-2.28-1.41-3.52 0.06 -1.31 1.55-2.59 1.11-3.7-0.33 -0.53-0.69-0.96-1.48-1.57-2.08 -0.33-0.33-0.94-0.37-1.42-0.54 0.03 0.45-0.13 1.05 0.1 1.33 2.24 2.71 3.96 6.22 8.62 5.04 1.2-0.3 2.71 0.77 3.98 0.59 2.48-0.35 5.04-0.83 7.28-1.87 1.56-0.72 1.28-1.12 2.5 0.47 0.28 0.37 1.23 0.4 1.84 0.31 1.39-0.2 2.74-0.68 4.13-0.84 2.19-0.26 4.4-0.35 6.6-0.51C87.52 104.14 87.57 103.88 87.62 103.62zM29.98 95.83c-1.5-1.56-3-3.12-4.48-4.69 -0.36-0.39-1.02-1.01-0.91-1.26 1.3-3.04 0.47-3.49-2.31-2.11 -0.42 0.21-1.23-0.35-1.86-0.56 0.36-0.4 0.68-0.85 1.09-1.19 1.99-1.67 2.27-3.8 0.4-5.25 -1.98-1.53-4.15-2.75-3.31-5.87 0.1-0.38-0.55-1.33-0.95-1.4 -0.62-0.1-1.53 0.12-1.98 0.56 -1.78 1.72-0.63 3.05 0.67 4.43 0.34 0.36 0.14 1.23 0.19 1.86 -0.56-0.21-1.13-0.38-1.67-0.63 -0.51-0.23-0.98-0.53-1.47-0.8 -0.04 0.65-0.37 1.55-0.07 1.92 2.96 3.62 5.77 7.41 9.15 10.6 2.06 1.94 5.03 2.9 7.59 4.3L29.98 95.83zM223.03 74.09c-0.3-0.84-0.59-1.69-0.89-2.53 0.9 0.09 1.81 0.14 2.71 0.26 0.8 0.11 1.59 0.3 2.39 0.45 -0.19-0.77-0.38-1.55-0.59-2.43 2.56 0.78 2.53 0.76 3.65-1.28 0.15-0.28 0.88-0.56 1.14-0.43 2.24 1.13 3.26 0.39 3.01-2.33 1.03 0.49 1.66 0.98 2.35 1.07 0.64 0.08 1.33-0.27 2-0.42 -0.4-0.54-0.73-1.47-1.2-1.55 -1.65-0.27-3.49-0.69-5-0.24 -5.36 1.61-10.62 3.57-16.71 5.66 2.49 1.76 4.48 3.17 6.48 4.58C222.58 74.64 222.81 74.36 223.03 74.09zM44.84 124.39c-1.08-4.22-1.08-4.22-4.43-3.5 -3.12 0.67-3.12 0.67-2.58-2.68 -4.73 0.89-4.74 0.91-9.21-2.06 -0.5-0.33-0.69-1.13-1.03-1.71 0.76 0.03 1.52 0.03 2.26 0.12 0.19 0.02 0.3 0.46 0.5 0.52 0.79 0.24 1.6 0.4 2.4 0.59 -0.28-0.97-0.25-2.29-0.89-2.83 -1.09-0.93-2.56-1.49-3.95-1.94 -0.52-0.17-1.5 0.21-1.9 0.66 -1.48 1.67-1.21 5.03 0.73 6 5.8 2.9 11.12 7.2 18.17 6.77L44.84 124.39zM217.53 112.19c0.62 0.7 1.11 1.7 1.88 2.03 4.68 1.99 9.04 4.59 14.19 5.66 4.29 0.89 8.3 3.06 12.46 4.62 1.66 0.62 3.36 1.41 5.64 0.19 -2.49-1.08-4.46-2.53-6.53-2.7 -2.63-0.21-3.88-1.29-4.51-3.59 -0.02-0.07-0.28-0.17-0.33-0.13 -2.45 1.95-4.64-0.45-6.97-0.57 -2.72-0.14-6.11-0.81-7.88-2.58 -2.48-2.49-5.08-2.73-8.03-2.86L217.53 112.19zM103.25 68.9c-4.49-2.94-9.5-4.9-14.18-7.5 -1.78-0.99-4.03-1.17-5.8 0.6l0.06-0.08c0.45 0.54 0.8 1.35 1.37 1.57 2.28 0.9 4.75 1.39 6.95 2.44 4.38 2.09 8.57 4.55 12.95 6.64 2.03 0.97 4.31 1.41 6.48 2.09l-0.07 0.08c0.34-2.31 2.49-1.67 3.83-2.35l-0.07 0.07c-2.06-3.75-4.44 1.13-6.62-0.12 0.05-0.35 0.01-0.63 0.13-0.79 0.48-0.65 1-1.26 1.51-1.89 -0.85 0.18-1.83 0.14-2.53 0.57 -1.59 0.97-2.75 0.72-3.74-0.79C103.43 69.26 103.34 69.08 103.25 68.9zM29.89 109.21c1.63 0.92 3.22 1.65 4.89 1.95 1.13 0.2 2.99 0.23 3.46-0.43 2.34-3.23 5.4-2.5 8.41-1.89 1.53 0.31 3.1 0.96 4.34 1.88 0.31 0.23-0.58 2.09-1.08 3.72 1.89-1.07 4.71-1.5 3.26-3.6 -1.3-1.9-0.34-2.49 0.47-3.55C45.24 104.91 37.74 108.52 29.89 109.21zM88.59 59.67c-1.04 2.43 1.02 2.39 2.35 3.09 4.24 2.2 8.87 3.68 12.64 6.74l-0.07-0.06c2.31-0.93 4.62-1.86 6.94-2.79 -0.06-0.29-0.12-0.59-0.17-0.88 -1.13 0-2.26 0.01-3.39 0 -0.71 0-1.53 0.2-2.12-0.08 -2.51-1.19-4.86-2.79-7.45-3.73 -2.83-1.03-5.86-1.49-8.81-2.2L88.59 59.67zM44.91 124.33c4.79 0.52 9.05 3.41 14.15 2.85 4.74-0.52 9.54-0.51 14.32-0.73 -0.01-0.3-0.02-0.61-0.02-0.91 -4.83 0-9.68 0.25-14.49-0.11 -2.2-0.16-5.5 0.24-5.62-3.68 -0.01-0.29-0.68-0.57-0.73-0.61 -0.85 0.88-1.41 1.94-2.23 2.2 -1.74 0.56-3.61 0.72-5.43 1.05L44.91 124.33zM77.99 68.69c-2.76 0.48-5.43-2.45-8.87-0.1 2.1 0.79 3.72 1.34 5.29 1.99 1.59 0.66 1.96 1.53 0.24 2.53 -0.45 0.26-0.94 0.45-1.41 0.67 0.67 0.65 1.23 0.81 1.79 0.82 1.82 0.03 4.25-0.6 2.54 2.75 -0.12 0.24 0.54 0.89 0.84 1.34 0.64-0.43 1.6-0.74 1.84-1.33 0.46-1.11 0.5-2.39 0.72-3.61 -3.21-0.41-2.48-3.15-3.03-5.13L77.99 68.69zM302.65 98.05c3.08-2.69 6.36-5.18 9.32-8 2.7-2.57 5.1-5.45 7.55-8.27 0.29-0.34 0.09-1.1 0.12-1.67 -0.5 0.17-1.11 0.21-1.47 0.54 -0.54 0.49-0.85 1.23-1.35 1.77 -5.42 5.85-9.89 12.79-18.23 15.65C300.21 99.58 301.37 99.17 302.65 98.05zM30.04 95.75c1.66 1.16 3.19 2.63 5.02 3.42 2.58 1.1 5.57 1.33 8.03 2.61 2.55 1.32 4.88 0.89 7.44 0.29 -1.07-0.76-2.23-1.09-3.4-1.35 -1.5-0.34-3.02-0.57-4.51-0.96 -1.07-0.28-2.12-0.68-3.15-1.1 -2.21-0.91-4.36-1.96-6.6-2.75 -0.86-0.3-1.91-0.05-2.88-0.06L30.04 95.75zM209.29 96.75c0.45 0.11 0.9 0.25 1.36 0.32 2.19 0.31 4.56 0.15 6.52 0.99 3.53 1.5 6.03 1.8 10.1-0.18 -6.33-0.56-11.89-3.05-17.85-1.98C209.38 96.18 209.33 96.47 209.29 96.75zM24.81 52.21c0.6-0.36 1.05-0.98 1.57-1.49 -0.77-0.19-1.86-0.79-2.25-0.49 -1.36 1.05-3 2.23-3.51 3.72 -0.38 1.12-0.51 1.21-1.5 1.23 -0.57 0.01-1.14 0.62-1.7 0.95 0.85 0.96 1.64 1.98 2.59 2.83 0.32 0.29 1.49 0.26 1.51 0.18 0.56-2.13 3.84-3.63 1.1-6.47C23.64 52.48 24.32 52.5 24.81 52.21zM320.86 47.59c-0.53-0.42-1.49-0.31-2.26-0.45 0.3 0.6 0.49 1.28 0.91 1.78 2.42 2.88 5.9 5.27 4.05 9.96 -0.14 0.35 0.95 1.18 1.48 1.79 0.44-0.64 0.88-1.28 1.03-1.51C325.86 53.84 324.23 50.26 320.86 47.59zM263.81 59.11c0.61-0.35 1.17-2.12 0.85-2.52 -0.8-1-2.06-1.72-3.26-2.28 -0.36-0.17-1.67 0.64-1.63 0.8 0.99 4.44-2.15 1.66-3.77 2.1C258.18 59.4 261.69 60.34 263.81 59.11zM86.53 100.97c3.69 0.88 7.38 1.8 11.09 2.57 0.49 0.1 1.15-0.57 1.73-0.89 -0.45-0.58-0.8-1.52-1.37-1.68 -2.24-0.63-4.54-1.16-6.85-1.45 -1.5-0.19-3.05 0.1-4.58 0.17C86.54 100.11 86.53 100.54 86.53 100.97zM254.71 126.49c4.3 0.39 8.6 0.78 12.91 1.03 0.42 0.02 0.89-0.89 1.34-1.37 -0.7-0.4-1.41-1.18-2.09-1.15 -4.13 0.15-8.25 0.48-12.6 0.76C254.48 126.12 254.58 126.48 254.71 126.49zM70.12 91.59c-0.59 1.45 1.22 6.54 2.72 7.34 0.44 0.23 1.31 0.28 1.59 0.01 0.34-0.33 0.52-1.21 0.31-1.64 -0.98-2.03-2.12-4-3.22-5.98 -0.1-0.18-0.4-0.26-1.03-0.65C70.4 90.91 70.26 91.25 70.12 91.59zM291.5 49.23c1.56-0.86 3.15-1.66 4.64-2.62 0.34-0.22 0.32-1.01 0.47-1.53 -0.57 0.04-1.35-0.14-1.66 0.16 -1.44 1.37-2.69 2.37-4.49 0.36 -0.35-0.4-1.7 0.09-2.6 0.17 0.48 0.94 0.85 1.98 1.51 2.77 0.25 0.31 1.18 0.05 1.8 0.05C291.28 48.81 291.39 49.02 291.5 49.23zM250.68 67.13c1.73 3.56 5.98 6.11 9.42 5.61 0.43-0.06 0.81-0.41 1.22-0.63 -0.25-0.35-0.55-1.02-0.74-0.99 -3.35 0.49-5.86-0.75-7.85-3.44 -0.33-0.44-1.39-0.34-2.12-0.49L250.68 67.13zM37.67 59.66c-3.22-0.61-3.7 2.83-5.73 4.03 -0.31 0.18-0.17 1.15-0.24 1.75 0.62-0.21 1.64-0.28 1.78-0.67 0.8-2.22 2.52-2.88 4.6-3.17 0.44-0.06 0.83-0.42 1.68-0.88C38.81 60.22 38.28 59.77 37.67 59.66zM259.14 102.22c2.96 0 5.93 0.04 8.89-0.06 0.35-0.01 0.66-0.83 0.99-1.27 -0.36-0.21-0.75-0.64-1.09-0.6 -2.96 0.34-5.91 0.75-8.86 1.15C259.09 101.7 259.11 101.96 259.14 102.22zM204.78 99.13c0.49 0.01 1-0.79 1.49-1.22 -0.63-0.24-1.37-0.81-1.87-0.65 -2.4 0.77-4.74 1.74-7.6 2.82C200.16 102.32 202.21 99.09 204.78 99.13zM217.45 112.26c0.87-1.05 1.84-2.04 2.55-3.18 0.18-0.29-0.42-1.08-0.66-1.64 -1.64 1.12-3.29 2.22-4.88 3.4 -0.08 0.06 0.23 1.05 0.48 1.11 0.83 0.21 1.72 0.19 2.58 0.25L217.45 112.26zM120.21 98.82c-1.86-1.89-4.74-2.06-8.05 0C114.83 98.82 117.5 98.82 120.21 98.82zM46.27 84.8c-2.05-0.9-4.13-1.72-6.24-2.46 -0.26-0.09-0.74 0.45-1.11 0.7 0.25 0.37 0.41 0.92 0.76 1.09 1.99 0.94 4 1.82 6.05 2.61 0.36 0.14 0.91-0.24 1.58-0.44C46.82 85.57 46.65 84.96 46.27 84.8zM245.05 103.39c3.56-1.42 6.38-2.54 9.09-3.62C248.6 99.25 247.4 99.63 245.05 103.39zM306.29 115.32c0.02-0.7-1.39-2.13-1.91-2.02 -1 0.22-1.82 1.29-2.71 2.01 0.7 0.74 1.4 1.49 2.4 2.55C305.06 116.81 306.27 116.08 306.29 115.32zM231.25 100.81c2.48 0 4.95 0 7.43 0 0.01-0.29 0.02-0.59 0.04-0.88 -2.44 0-4.89 0-7.33 0C231.34 100.22 231.3 100.51 231.25 100.81zM249.35 59.18c1.32 0.99 2.58 2.07 3.99 2.91 0.47 0.28 1.32-0.07 2-0.13 -0.26-0.62-0.35-1.57-0.81-1.81 -1.47-0.77-3.08-1.27-4.64-1.88C249.71 58.57 249.53 58.87 249.35 59.18zM255.81 66.83c2.22 0.03 4.43 0.1 6.64 0.04 0.27-0.01 0.81-0.92 0.73-1.03 -0.31-0.41-0.87-0.97-1.27-0.92 -1.98 0.21-3.94 0.6-5.91 0.93C255.93 66.17 255.87 66.5 255.81 66.83zM250.51 76.23c2.85 0.62 5.73 0.15 8.6 0.12 0.01-0.36 0.03-0.72 0.04-1.08 -2.87 0-5.74 0-8.6 0C250.53 75.58 250.52 75.9 250.51 76.23zM324.41 65.28c-0.74 1.77-1.41 3.37-2.29 5.47C325.87 69.54 326.25 68.5 324.41 65.28zM250.35 94.88c-2.81 1.02-5.63 2.05-8.44 3.07C245.4 99.09 247.56 96.14 250.35 94.88zM311.31 43.36c-2.35-0.15-4.26-0.27-6.18-0.39C307.52 46.08 307.52 46.08 311.31 43.36zM96.91 121.23c2.22-0.73 4.43-1.46 7.31-2.41 -3.55-1.31-5.34 0.87-7.54 1.64C96.76 120.72 96.84 120.98 96.91 121.23zM244.76 111.66c0.7 0.86 1.27 1.92 2.15 2.5 0.44 0.29 1.45-0.27 2.21-0.45 -0.31-0.57-0.47-1.36-0.95-1.66 -0.84-0.54-1.87-0.78-2.82-1.15C245.15 111.15 244.96 111.4 244.76 111.66zM209.43 104.68c1.1-0.63 2.3-1.16 3.25-1.96 0.33-0.28 0.06-1.28 0.07-1.95 -0.63 0.12-1.48 0.02-1.85 0.39 -0.8 0.81-1.36 1.86-2.01 2.81C209.06 104.21 209.25 104.44 209.43 104.68zM119.42 74.62c-0.85 1.1-1.7 2.19-2.56 3.29 0.08 0.19 0.16 0.37 0.24 0.55 1.78-0.82 3.55-1.63 5.33-2.45 0-0.27-0.01-0.54-0.02-0.81 -1.02-0.17-2.04-0.34-3.06-0.52L119.42 74.62zM289.48 101.37c-1.47-0.13-2.94-0.31-4.41-0.34 -0.35 0-0.7 0.56-1.05 0.86 0.33 0.32 0.67 0.91 1 0.9 1.53-0.03 3.06-0.23 4.6-0.36C289.57 102.07 289.52 101.72 289.48 101.37zM210.85 109.97c1.09-0.64 2.16-1.32 3.17-2.07 0.06-0.04-0.37-0.76-0.57-1.16 -1.01 0.56-2.04 1.08-3.01 1.7 -0.26 0.16-0.33 0.61-0.59 1.12C210.41 109.8 210.73 110.05 210.85 109.97zM81.5 125.05c1.75 0 3.5 0 5.24 0 0-0.36 0-0.72 0-1.08 -1.74 0-3.49 0-5.23 0C81.51 124.33 81.5 124.69 81.5 125.05zM283.37 125.65c-1.48 0-2.96-0.01-4.44 0.04 -0.07 0-0.12 0.62-0.18 0.95 1.47 0.19 2.94 0.38 4.4 0.56C283.22 126.69 283.29 126.17 283.37 125.65zM118.6 108.19c0.3-0.17 0.35-0.77 0.51-1.18 -1.08 0-2.15-0.03-3.23 0.03 -0.42 0.03-0.82 0.28-1.47 0.51C115.78 109.57 117.22 108.99 118.6 108.19zM271.92 70.36c0.54 1.12 1.08 2.23 1.62 3.35 0.44-0.37 1.3-0.95 1.24-1.07 -0.5-1.04-1.18-2-1.8-2.99C272.63 69.88 272.27 70.12 271.92 70.36zM102.05 100.66c1.53 0.22 3.07 0.44 4.6 0.66 0.05-0.47 0.1-0.94 0.16-1.4 -1.54-0.16-3.08-0.32-4.63-0.48C102.14 99.84 102.09 100.25 102.05 100.66zM240.92 62.38c-0.26-0.09-0.72 0.44-1.09 0.69 0.75 0.67 1.44 1.44 2.28 1.95 0.26 0.16 0.95-0.39 2.28-0.98C242.74 63.23 241.87 62.71 240.92 62.38zM35.47 73.54c-0.87 0.47-1.78 0.95-2.44 1.65 -0.17 0.18 0.49 1.14 0.77 1.75 0.77-0.72 1.55-1.43 2.52-2.33C35.96 74.15 35.53 73.5 35.47 73.54zM234.6 96.67c1.32 0.12 2.65 0.23 3.98 0.35 0.04-0.4 0.07-0.81 0.11-1.21 -1.32-0.12-2.65-0.23-3.97-0.35C234.67 95.86 234.64 96.26 234.6 96.67zM86.27 87.42c-0.14-0.27-0.28-0.54-0.42-0.81 -1.38 0.66-2.76 1.33-4.14 1.99C83.95 89.67 85.41 89.1 86.27 87.42zM245.78 80.22c1.28-0.08 2.56-0.16 3.84-0.27 0.03 0 0.03-0.42 0.04-0.64 -1.27-0.05-2.55-0.1-3.83-0.15C245.81 79.51 245.8 79.86 245.78 80.22zM57.24 116.55c-1.1-0.77-2.19-1.53-3.29-2.3 -0.24 0.4-0.73 1.11-0.67 1.15 1 0.84 2.08 1.6 3.13 2.38C56.69 117.37 56.96 116.96 57.24 116.55zM52.06 57.99c-0.53-0.66-1.23-1.19-1.87-1.77 -0.34 0.39-1.05 0.96-0.96 1.14 0.33 0.71 0.93 1.3 1.62 2.18C51.42 58.82 52.13 58.09 52.06 57.99zM22.83 61.96c-0.03 0.05 0.53 0.39 0.82 0.6 0.68-1.09 1.37-2.16 2-3.27 0.08-0.14-0.11-0.44-0.46-1.67C24.16 59.47 23.46 60.7 22.83 61.96zM24.57 46.4c-0.57 0.02-1.12 0.61-1.68 0.95 0.59 0.52 1.12 1.27 1.81 1.48 0.37 0.11 1.02-0.68 1.94-1.36C25.68 46.94 25.11 46.37 24.57 46.4zM282.96 51.11c-0.14 1.17-0.33 2.34-0.36 3.51 0 0.14 0.82 0.31 1.25 0.46 0.11-1.02 0.23-2.04 0.3-3.06 0.02-0.21-0.15-0.43-0.24-0.64C283.6 51.29 283.28 51.2 282.96 51.11zM245.02 61.83c1.2 0.44 2.38 0.91 3.6 1.29 0.12 0.04 0.42-0.51 0.64-0.78 -1.15-0.56-2.31-1.11-3.46-1.66 -0.06-0.03-0.2 0.09-0.31 0.14C245.33 61.16 245.18 61.5 245.02 61.83zM225.72 93.49c1.68 1.86 3.64 2.07 5.77 1.23 0.04-0.29 0.08-0.59 0.11-0.88 -1.98-0.09-3.97-0.18-5.95-0.28L225.72 93.49zM286.07 64.55c0.88-0.73 1.76-1.45 2.64-2.18 -0.33-0.34-0.9-1.01-0.95-0.98 -0.86 0.65-1.67 1.39-2.48 2.1C285.54 63.84 285.8 64.19 286.07 64.55zM40.83 67.2c-0.14-0.71-0.07-1.57-0.47-2.08 -0.43-0.55-1.29-0.75-1.96-1.11 0.22 0.61 0.39 1.26 0.69 1.83 0.29 0.56 0.72 1.06 1.09 1.59C40.39 67.35 40.61 67.28 40.83 67.2zM296.48 99.57c-1.27-0.19-2.54-0.38-3.81-0.57 -0.05 0.37-0.11 0.73-0.16 1.1 1.27 0.24 2.53 0.48 3.79 0.72C296.36 100.4 296.42 99.99 296.48 99.57zM115.69 92.07c-1.98 0.27-4.22-1.15-5.97 0.58 0.09 0.38 0.17 0.75 0.26 1.13 1.88-0.59 3.77-1.18 5.65-1.77L115.69 92.07zM294.5 52.93c-0.45 0.51-1.07 0.95-1.27 1.54 -0.1 0.28 0.59 1.21 0.9 1.19 0.55-0.02 1.09-0.53 1.9-0.99C295.36 53.91 294.93 53.42 294.5 52.93zM104.4 95.3c0.99-0.16 1.99-0.32 2.98-0.48 -0.04-0.36-0.08-0.71-0.12-1.07 -1.01 0.06-2.02 0.11-3.03 0.17C104.28 94.38 104.34 94.84 104.4 95.3zM315.4 44.65c-0.57 0.03-1.12 0.62-1.68 0.96 0.58 0.44 1.13 1.14 1.77 1.24 0.49 0.08 1.1-0.6 2.06-1.18C316.55 45.17 315.96 44.62 315.4 44.65zM270.49 86.2c-0.79-0.76-1.57-1.53-2.36-2.29 -0.22 0.25-0.66 0.69-0.63 0.73 0.68 0.84 1.42 1.63 2.15 2.43C269.93 86.79 270.21 86.5 270.49 86.2zM33.32 84.87c-0.11-0.69-0.8-1.29-1.25-1.93 -0.48 0.44-1.31 0.85-1.34 1.32 -0.04 0.67 0.5 1.37 1 2.53C32.54 85.85 33.39 85.28 33.32 84.87zM97.44 97.37c-0.99 0.15-1.98 0.31-2.97 0.46 0.05 0.38 0.1 0.75 0.15 1.13 1-0.12 2-0.23 2.99-0.35C97.56 98.2 97.5 97.79 97.44 97.37zM57.12 93.7c-0.28-0.04-0.65 0.54-0.99 0.84 0.61 0.5 1.16 1.1 1.85 1.44 0.19 0.1 0.76-0.58 1.64-1.28C58.46 94.21 57.81 93.81 57.12 93.7zM114.96 111.81c-0.41-0.06-0.89 0.46-1.34 0.72 0.37 0.5 0.66 1.19 1.16 1.44 0.27 0.14 0.91-0.48 1.71-0.94C115.8 112.45 115.42 111.87 114.96 111.81zM111.07 74.66c0.83 0.65 1.66 1.3 2.49 1.95 0.26-0.34 0.52-0.69 0.77-1.03 -0.99-0.28-1.98-0.56-2.97-0.83 -0.11-0.03-0.24-0.01-0.36-0.01L111.07 74.66zM119.36 74.69c-1.53-0.74-3.06-1.48-4.6-2.22l0.07-0.07c0.44 2.99 2.74 2.15 4.59 2.23L119.36 74.69zM302.67 49.41c-0.01 0.24 0.98 0.82 1.33 0.7 0.42-0.14 0.89-0.86 0.89-1.33 -0.01-0.4-0.66-0.78-1.3-1.46C303.13 48.26 302.7 48.82 302.67 49.41zM83.01 96.64c1.14 0 2.28 0 3.42 0 0.01-0.28 0.02-0.57 0.03-0.85 -1.13-0.09-2.27-0.18-3.4-0.27C83.04 95.88 83.03 96.26 83.01 96.64zM82.47 108.98c-0.25-0.06-0.65 0.5-0.98 0.77 0.35 0.4 0.63 0.93 1.06 1.16 0.2 0.1 0.71-0.39 1.4-0.81C83.3 109.57 82.93 109.1 82.47 108.98zM255.04 103.23c-1.01 0.13-2.01 0.26-3.02 0.4 0.03 0.27 0.07 0.54 0.1 0.81 0.99 0 1.99 0 2.98 0C255.08 104.03 255.06 103.63 255.04 103.23zM65.01 76.46c0 0.42 0.61 0.84 0.95 1.26 0.39-0.38 1.05-0.73 1.09-1.14 0.05-0.46-0.46-0.98-0.94-1.87C65.56 75.53 65 76 65.01 76.46zM289.02 122.24c-0.75 0.78-1.5 1.56-2.24 2.35 0.2 0.19 0.39 0.38 0.59 0.57 0.82-0.7 1.64-1.4 2.47-2.1C289.56 122.79 289.29 122.52 289.02 122.24zM302.27 57.24c-0.04-0.02-0.67 0.95-0.58 1.05 0.45 0.5 1.02 0.95 1.63 1.22 0.21 0.09 0.68-0.43 1.42-0.95C303.68 57.96 302.99 57.56 302.27 57.24zM26.11 72.16c-0.23-0.05-0.93 0.73-0.87 0.84 0.3 0.56 0.73 1.09 1.23 1.49 0.1 0.08 0.67-0.42 1.89-1.21C27.34 72.74 26.76 72.31 26.11 72.16zM116.98 67.7c-1.17 0-2.34 0-3.51 0 0 0.28-0.01 0.57-0.01 0.85 1.18 0.09 2.36 0.17 3.54 0.26C116.99 68.44 116.98 68.07 116.98 67.7zM29.17 75.6c-0.55 1.19-1.09 2.38-1.64 3.57 0.22 0.11 0.45 0.21 0.67 0.32 0.59-1.17 1.17-2.34 1.76-3.52C29.69 75.86 29.43 75.73 29.17 75.6zM90.97 123.09c0.88-0.04 1.76-0.09 2.64-0.13 -0.01-0.26-0.01-0.52-0.02-0.78 -0.88 0-1.76 0-2.63 0C90.96 122.49 90.96 122.79 90.97 123.09zM71.36 63.7c-1.06 0.08-2.12 0.17-3.18 0.25 0.02 0.37 0.05 0.74 0.07 1.11 1.06-0.06 2.13-0.12 3.19-0.18C71.42 64.49 71.39 64.1 71.36 63.7zM84.77 68.59c0.93-0.05 1.85-0.09 2.78-0.14 0-0.25 0-0.5 0-0.75 -0.91-0.06-1.83-0.12-2.75-0.18C84.79 67.88 84.78 68.23 84.77 68.59zM36.64 52.28c-0.57 0.09-1.07 0.67-1.6 1.03 0.41 0.38 0.82 1.06 1.22 1.05 0.58-0.01 1.16-0.51 2.1-0.98C37.55 52.83 37.04 52.22 36.64 52.28zM301.18 45.25c0.18 0.46 0.68 0.79 1.05 1.17 0.25-0.35 0.73-0.74 0.68-1.05 -0.07-0.45-0.51-0.85-1.04-1.64C301.49 44.52 301.07 44.99 301.18 45.25zM272.26 66.2c0.08 0.37 0.83 0.72 1.33 0.81 0.29 0.05 0.68-0.43 1.02-0.67 -0.32-0.42-0.65-0.83-1.57-2.02C272.65 65.19 272.16 65.76 272.26 66.2zM259.44 119.67c-0.48 0.09-0.86 0.69-1.29 1.06 0.54 0.37 1.04 0.96 1.62 1.03 0.36 0.05 0.81-0.68 1.56-1.37C260.46 120.03 259.9 119.59 259.44 119.67zM17.32 46.92c0.51 1.87 1.94 2.38 3.45 2.78 0.15-0.24 0.3-0.48 0.45-0.72 -1.32-0.66-2.65-1.32-3.97-1.99L17.32 46.92zM86.85 71.67c-0.95 0-1.91 0-2.86 0 0.01 0.2 0.02 0.4 0.02 0.6 0.96 0 1.91 0 2.86 0C86.86 72.07 86.85 71.86 86.85 71.67zM31.13 69.57c-0.54 0.33-1.02 0.81-1.39 1.33 -0.07 0.1 0.69 0.97 0.76 0.93 0.58-0.31 1.09-0.76 1.87-1.36C31.77 70.03 31.26 69.49 31.13 69.57zM265.89 61.54c-0.48 0.15-0.85 0.64-1.27 0.98 0.32 0.27 0.68 0.77 0.97 0.74 0.48-0.05 0.92-0.46 1.74-0.92C266.6 61.91 266.16 61.45 265.89 61.54zM77.92 68.61c1.2-0.14 2.4-0.28 3.6-0.42 -0.1-0.33-0.2-0.66-0.3-0.99 -1.08 0.49-2.16 0.99-3.23 1.48L77.92 68.61zM52.74 89.82c-0.34 0.04-0.63 0.63-0.94 0.98 0.43 0.34 0.85 0.94 1.28 0.95 0.41 0.01 0.83-0.6 1.61-1.25C53.75 90.14 53.22 89.77 52.74 89.82zM269.38 90.48c0.76 0.8 1.52 1.61 2.28 2.41 0.14-0.18 0.27-0.35 0.41-0.53 -0.92-0.61-1.84-1.22-2.75-1.82L269.38 90.48zM255.39 117.25c-0.4 0.36-0.69 0.86-0.9 1.36 -0.04 0.1 0.57 0.66 0.69 0.61 0.48-0.23 0.88-0.62 1.61-1.19C256.07 117.62 255.49 117.16 255.39 117.25zM87.86 120.15c-0.32-0.04-0.71 0.39-1.06 0.62 0.37 0.29 0.7 0.67 1.11 0.83 0.21 0.08 0.57-0.22 1.15-0.47C88.54 120.67 88.23 120.19 87.86 120.15zM59.82 122.81c-0.36-0.39-0.71-1.07-1.08-1.08 -0.39-0.01-0.79 0.63-1.19 0.98 0.33 0.3 0.65 0.6 1.11 1.03C59.14 123.37 59.48 123.09 59.82 122.81zM285.38 87.89c-0.49 0.11-0.91 0.57-1.35 0.88 0.36 0.28 0.69 0.75 1.07 0.8 0.37 0.05 0.81-0.32 1.56-0.66C286.03 88.39 285.64 87.83 285.38 87.89zM276.48 61.66c-0.15-0.04-0.41 0.42-0.62 0.66 0.46 0.3 0.89 0.65 1.38 0.85 0.14 0.06 0.47-0.36 0.96-0.76C277.47 62.07 277 61.78 276.48 61.66zM237.11 111.06c0.04-0.09-0.6-0.62-0.65-0.59 -0.43 0.34-0.83 0.72-1.14 1.17 -0.05 0.07 0.39 0.49 0.8 0.99C236.54 112 236.89 111.56 237.11 111.06zM261.56 95.97c-0.04 0.08 0.57 0.7 0.68 0.64 0.5-0.23 0.99-0.56 1.33-0.99 0.09-0.11-0.38-0.67-0.77-1.31C262.23 95.06 261.84 95.48 261.56 95.97zM315.17 78.13c-0.4 0.32-0.8 0.78-0.93 1.26 -0.05 0.2 0.56 0.83 0.86 0.83 0.55-0.01 1.09-0.35 2.08-0.71C315.83 78.56 315.27 78.05 315.17 78.13zM281.15 75.17c-0.38 0.05-0.71 0.46-1.07 0.72 0.29 0.27 0.57 0.75 0.88 0.77 0.38 0.02 0.78-0.34 1.55-0.73C281.83 75.52 281.46 75.13 281.15 75.17zM299.4 50c-0.04-0.49-0.45-0.95-0.71-1.42 -0.42 0.36-0.98 0.64-1.19 1.1 -0.11 0.22 0.41 0.75 0.79 1.36C298.79 50.59 299.42 50.27 299.4 50zM63.41 71.6c-0.37-0.17-0.87-0.58-1.07-0.47 -0.43 0.25-0.69 0.77-1.03 1.17 0.34 0.27 0.69 0.78 1.01 0.76 0.54-0.03 1.05-0.4 1.57-0.63C63.73 72.15 63.57 71.88 63.41 71.6zM74.59 115c-0.04 0.18 0.52 0.72 0.63 0.67 0.37-0.15 0.71-0.46 0.93-0.79 0.06-0.09-0.38-0.5-0.77-0.98C75.03 114.35 74.68 114.64 74.59 115zM66.56 114.01c-0.4 0.11-0.74 0.46-1.1 0.72 0.22 0.25 0.46 0.72 0.67 0.7 0.41-0.03 0.8-0.32 1.41-0.6C67.05 114.4 66.74 113.96 66.56 114.01zM34.78 90.9c-0.04 0.24 0.39 0.78 0.58 0.76 0.37-0.03 0.97-0.3 1.02-0.56 0.06-0.33-0.33-0.74-0.71-1.49C35.2 90.25 34.84 90.55 34.78 90.9zM50.06 78.62c-0.13-0.41-0.48-0.75-0.74-1.13 -0.28 0.3-0.78 0.6-0.78 0.89 0.01 0.35 0.45 0.7 0.83 1.22C49.72 79.12 50.11 78.8 50.06 78.62zM21.48 71.22c0.02-0.2-0.42-0.46-0.66-0.69 -0.32 0.45-0.65 0.9-0.98 1.34 0.28 0.19 0.55 0.37 1.03 0.7C21.13 72.03 21.42 71.64 21.48 71.22zM259.79 112.91c0.01-0.19-0.54-0.64-0.69-0.59 -0.37 0.14-0.86 0.46-0.93 0.79 -0.06 0.25 0.45 0.62 0.95 1.24C259.47 113.64 259.76 113.28 259.79 112.91zM247.55 73.58c-0.02-0.26-0.55-0.73-0.66-0.68 -0.35 0.17-0.62 0.53-0.92 0.81 0.27 0.21 0.54 0.41 0.89 0.69C247.15 74.08 247.56 73.81 247.55 73.58zM38.47 73.59c-0.05 0.19 0.41 0.72 0.61 0.71 0.37-0.02 0.96-0.29 1.02-0.54 0.07-0.31-0.33-0.72-0.69-1.4C38.93 72.95 38.56 73.24 38.47 73.59zM225.15 109.19c-0.24-0.09-0.98 0.39-0.98 0.6 0.01 0.41 0.3 0.94 0.64 1.17 0.19 0.13 0.72-0.24 1.36-0.48C225.7 109.85 225.5 109.31 225.15 109.19zM300.84 82.15c-0.44 0.12-0.84 0.4-1.25 0.61 0.21 0.37 0.41 0.74 0.62 1.1 0.38-0.24 0.77-0.48 1.27-0.79C301.19 82.64 300.94 82.12 300.84 82.15zM296.11 120.17c-0.23 0.02-0.67 0.59-0.6 0.74 0.15 0.34 0.56 0.81 0.84 0.79 0.35-0.02 0.68-0.47 1.36-1C296.9 120.41 296.49 120.14 296.11 120.17zM60.58 85.84c-0.53-0.57-1.05-1.14-1.58-1.71 -0.17 0.15-0.35 0.3-0.52 0.45 0.48 0.61 0.97 1.21 1.45 1.82C60.15 86.22 60.36 86.03 60.58 85.84zM53.86 82.88c-0.03 0.19 0.45 0.67 0.68 0.66 0.37-0.03 0.72-0.35 1.08-0.55 -0.25-0.35-0.5-0.71-0.95-1.36C54.26 82.21 53.91 82.52 53.86 82.88zM86.29 113.02c-0.05 0.06 0.42 0.69 0.53 0.65 0.4-0.12 0.77-0.38 1.07-0.67 0.06-0.05-0.28-0.51-0.54-0.98C86.9 112.43 86.54 112.68 86.29 113.02zM93.57 113.21c0.23 0.24 0.52 0.71 0.68 0.67 0.41-0.09 0.76-0.42 1.13-0.65 -0.2-0.26-0.4-0.52-0.74-0.97C94.22 112.64 93.89 112.93 93.57 113.21zM276.21 113.78c0.11 0.21 0.17 0.52 0.35 0.61 0.42 0.23 0.9 0.36 1.35 0.53 -0.45-0.51-0.9-1.02-1.35-1.53C276.45 113.52 276.33 113.65 276.21 113.78zM93.95 106.04c-0.24 0.2-0.71 0.51-0.68 0.59 0.16 0.37 0.47 0.68 0.72 1.01 0.2-0.24 0.4-0.48 0.64-0.78C94.37 106.54 94.16 106.29 93.95 106.04zM90.9 117.38c0.01 0.25-0.06 0.56 0.06 0.73 0.39 0.53 0.85 1.01 1.31 1.47 0.02 0.02 0.35-0.26 0.53-0.4 -0.42-0.5-0.81-1.03-1.27-1.5 -0.15-0.16-0.46-0.16-0.7-0.23L90.9 117.38zM42.49 55.26c0.04 0.28 0.4 0.51 0.61 0.76 0.25-0.3 0.56-0.56 0.7-0.9 0.04-0.1-0.43-0.4-0.78-0.71C42.78 54.75 42.45 55.04 42.49 55.26zM12.96 60.67c0-0.25-0.38-0.5-0.6-0.76 -0.31 0.28-0.75 0.52-0.9 0.87 -0.1 0.23 0.22 0.64 0.56 1.5C12.63 61.29 12.96 60.98 12.96 60.67zM25.11 78.15c-0.07-0.31-0.43-0.55-0.66-0.82 -0.21 0.23-0.62 0.47-0.6 0.67 0.03 0.31 0.36 0.58 0.69 1.04C24.81 78.65 25.16 78.35 25.11 78.15zM208.03 81.04c-0.36-0.08-0.74-0.26-1.09-0.22 -0.44 0.04-0.86 0.25-1.28 0.39 0.23 0.33 0.4 0.88 0.7 0.95 0.36 0.09 0.81-0.22 1.22-0.36C207.72 81.54 207.87 81.29 208.03 81.04zM52.85 86.28c-0.39 0-0.78 0.27-1.17 0.43 0.19 0.26 0.34 0.7 0.57 0.74 0.39 0.07 0.82-0.11 1.51-0.24C53.29 86.71 53.07 86.28 52.85 86.28zM251.84 85.52c-0.12-0.02-0.5 0.55-0.44 0.64 0.17 0.26 0.49 0.53 0.78 0.58 0.23 0.04 0.51-0.26 1.1-0.61C252.6 85.82 252.24 85.58 251.84 85.52zM112 115.21c-0.18-0.28-0.3-0.68-0.55-0.79 -0.19-0.08-0.54 0.22-0.82 0.36 0.22 0.26 0.43 0.52 0.63 0.75C111.57 115.39 111.79 115.3 112 115.21zM285.87 47.35c-0.27-0.16-0.53-0.39-0.83-0.45 -0.14-0.03-0.52 0.32-0.49 0.43 0.08 0.29 0.31 0.54 0.57 0.96C285.45 47.87 285.66 47.61 285.87 47.35zM302.78 66.76c0.05-0.14-0.19-0.54-0.29-0.53 -0.26 0.01-0.71 0.14-0.73 0.28 -0.04 0.26 0.17 0.56 0.35 1.08C302.44 67.2 302.69 67.01 302.78 66.76zM280.31 111.48c0.03 0.25 0.41 0.61 0.66 0.63 0.22 0.01 0.65-0.38 0.65-0.59 0-0.24-0.36-0.49-0.66-0.85C280.67 111 280.28 111.27 280.31 111.48zM41.88 88.62c0.2 0.25 0.45 0.46 0.69 0.69 0.18-0.22 0.36-0.44 0.55-0.65 -0.28-0.18-0.55-0.35-0.82-0.52C42.11 88.33 41.85 88.59 41.88 88.62zM297.37 75.01c-0.24 0.01-0.46 0.37-0.69 0.58 0.23 0.21 0.44 0.55 0.69 0.58 0.23 0.03 0.5-0.28 0.9-0.54C297.87 75.33 297.62 75 297.37 75.01zM41.82 78.88c-0.18-0.01-0.55 0.22-0.55 0.33 0.01 0.29 0.19 0.58 0.29 0.87 0.29-0.12 0.58-0.25 1.73-0.73C42.47 79.07 42.15 78.9 41.82 78.88zM11.08 64.38c0 0.14 0.43 0.43 0.52 0.38 0.26-0.14 0.45-0.42 0.66-0.64 -0.23-0.21-0.46-0.42-0.84-0.78C11.25 63.81 11.07 64.1 11.08 64.38zM320.1 62.07c0.18 0.25 0.33 0.52 0.54 0.74 0.02 0.02 0.48-0.26 0.47-0.31 -0.09-0.28-0.26-0.54-0.41-0.81C320.44 61.85 320.27 61.96 320.1 62.07zM317.15 67.1c-0.24 0.06-0.55 0.48-0.54 0.74 0 0.22 0.4 0.58 0.64 0.6 0.3 0.02 0.63-0.24 1.2-0.49C317.66 67.41 317.35 67.05 317.15 67.1zM87.54 81.05c-0.18-0.02-0.39 0.18-0.59 0.28 0.2 0.21 0.4 0.42 0.59 0.62 0.14-0.16 0.29-0.32 0.43-0.48C87.83 81.33 87.7 81.07 87.54 81.05zM282.68 85.74c0.31 0.01 0.61-0.26 0.92-0.41 -0.25-0.31-0.44-0.72-0.76-0.88 -0.16-0.08-0.56 0.29-1.33 0.74C282.06 85.46 282.37 85.74 282.68 85.74zM100.35 96.09c0.18 0.24 0.34 0.66 0.55 0.68 0.29 0.03 0.61-0.23 0.92-0.37 -0.12-0.24-0.25-0.48-0.4-0.78C100.96 95.82 100.66 95.95 100.35 96.09zM254.76 80.82c-0.15-0.06-0.6 0.16-0.6 0.22 0.03 0.29 0.11 0.74 0.29 0.8 0.25 0.09 0.61-0.11 1.19-0.26C255.22 81.2 255.02 80.93 254.76 80.82zM90.83 117.46c-0.49-0.34-0.97-0.68-1.46-1.02 -0.06 0.09-0.12 0.19-0.19 0.28 0.57 0.22 1.15 0.44 1.72 0.66L90.83 117.46zM266.32 53.3c0.2 0.11 0.42 0.32 0.59 0.29 0.29-0.05 0.55-0.26 0.83-0.41 -0.23-0.2-0.45-0.41-0.78-0.7C266.7 52.82 266.51 53.06 266.32 53.3zM47.57 51.21c-0.02-0.23-0.44-0.61-0.65-0.59 -0.27 0.02-0.62 0.34-0.72 0.61 -0.05 0.15 0.34 0.46 0.89 1.15C47.32 51.85 47.59 51.52 47.57 51.21zM313.6 54.68c-0.17-0.09-0.44 0.01-0.67 0.03 0.09 0.27 0.19 0.54 0.28 0.82 0.21-0.09 0.41-0.17 0.61-0.26C313.76 55.06 313.74 54.76 313.6 54.68zM18.87 62.36c-0.19-0.11-0.38-0.3-0.57-0.3 -0.19 0-0.39 0.19-0.58 0.29 0.15 0.25 0.3 0.51 0.57 0.95C18.57 62.86 18.72 62.61 18.87 62.36zM57.96 111.13c0.04 0.18 0.28 0.41 0.46 0.44 0.12 0.02 0.29-0.27 0.44-0.43 -0.17-0.15-0.33-0.31-0.5-0.47C58.21 110.82 57.93 111.01 57.96 111.13zM32.21 57.43c0.24-0.02 0.44-0.4 0.66-0.62 -0.22-0.22-0.44-0.59-0.67-0.61 -0.23-0.01-0.48 0.34-0.86 0.64C31.72 57.11 31.98 57.45 32.21 57.43zM278.74 58.49c0.01 0.18 0.26 0.34 0.4 0.5 0.17-0.22 0.33-0.43 0.5-0.65 -0.18-0.12-0.35-0.23-0.52-0.35C278.98 58.16 278.73 58.33 278.74 58.49zM98.92 110.8c-0.14-0.05-0.56 0.2-0.55 0.25 0.06 0.28 0.16 0.68 0.35 0.76 0.21 0.08 0.55-0.15 1.07-0.33C99.38 111.14 99.18 110.89 98.92 110.8zM48.61 62.21c-0.16-0.02-0.36 0.18-0.54 0.28 0.2 0.21 0.4 0.42 0.6 0.63 0.13-0.16 0.25-0.32 0.38-0.48C48.9 62.49 48.77 62.24 48.61 62.21zM105.13 110.58c-0.2 0-0.41-0.03-0.6 0.01 -0.07 0.01-0.1 0.19-0.15 0.29 0.17 0.08 0.35 0.17 0.52 0.25C104.97 110.94 105.05 110.76 105.13 110.58zM265.19 118.43c-0.18-0.01-0.37 0.21-0.56 0.33 0.13 0.17 0.26 0.47 0.4 0.48 0.18 0.01 0.37-0.22 0.55-0.34C265.45 118.73 265.33 118.43 265.19 118.43zM249.49 90.48c0.18 0.22 0.33 0.49 0.56 0.63 0.1 0.06 0.37-0.18 0.56-0.28 -0.15-0.25-0.3-0.5-0.46-0.76C249.86 90.26 249.67 90.37 249.49 90.48zM84.28 92.86c-0.12-0.16-0.24-0.44-0.37-0.44 -0.17-0.01-0.36 0.2-0.54 0.31 0.12 0.15 0.25 0.31 0.37 0.46C83.92 93.08 84.1 92.97 84.28 92.86zM210.79 79.5c-0.11-0.2-0.22-0.39-0.33-0.59 -0.26 0.16-0.52 0.31-0.79 0.47 0.17 0.14 0.34 0.29 0.51 0.43C210.38 79.71 210.58 79.6 210.79 79.5zM82.56 78.76c-0.28 0.02-0.54 0.29-0.81 0.45 0.18 0.24 0.32 0.64 0.54 0.69 0.25 0.06 0.56-0.2 1.7-0.68C83.2 78.95 82.87 78.74 82.56 78.76zM321.8 76.25c-0.39 0.52-0.79 1.04-1.19 1.56 0.11 0.06 0.21 0.13 0.32 0.19 0.26-0.61 0.53-1.21 0.8-1.82L321.8 76.25zM54.67 76.78c-0.13 0.17-0.36 0.35-0.36 0.52 0 0.13 0.34 0.39 0.46 0.35 0.17-0.05 0.28-0.31 0.41-0.48C55.01 77.04 54.84 76.91 54.67 76.78zM321.72 76.17c0.44-0.34 0.88-0.69 1.32-1.03 -0.13-0.14-0.27-0.28-0.41-0.42 -0.28 0.51-0.56 1.01-0.84 1.52L321.72 76.17zM277.28 49.02c-0.17 0.03-0.29 0.3-0.44 0.46 0.19 0.1 0.4 0.3 0.57 0.27 0.16-0.02 0.29-0.28 0.43-0.44C277.65 49.21 277.44 48.99 277.28 49.02zM271.88 51c-0.17-0.01-0.35 0.16-0.52 0.26 0.13 0.14 0.24 0.39 0.38 0.41 0.16 0.02 0.34-0.17 0.52-0.27C272.13 51.25 272.01 51.01 271.88 51zM306.73 52.17c-0.5 0.32-0.99 0.64-1.49 0.96 0.16 0.13 0.33 0.25 0.49 0.38 0.31-0.47 0.62-0.94 0.93-1.41L306.73 52.17zM311.51 59.08c0.03-0.06-0.04-0.17-0.06-0.26 -0.13 0.07-0.26 0.14-0.38 0.21 0.07 0.06 0.13 0.12 0.2 0.18C311.35 59.17 311.48 59.15 311.51 59.08zM283.65 114.85c0.03 0.01 0.21-0.18 0.2-0.22 -0.08-0.17-0.21-0.32-0.32-0.47 -0.12 0.13-0.25 0.27-0.37 0.4C283.32 114.66 283.48 114.78 283.65 114.85zM46.33 111.36c0.04 0.11 0.06 0.27 0.13 0.31 0.08 0.03 0.21-0.06 0.39-0.13C46.64 111.46 46.48 111.41 46.33 111.36zM47.25 54.91c-0.06 0.09-0.19 0.23-0.17 0.25 0.12 0.14 0.28 0.26 0.42 0.38 0.06-0.09 0.12-0.17 0.18-0.26C47.54 55.15 47.39 55.03 47.25 54.91zM47.41 119.31c0.03 0.01 0.23-0.2 0.21-0.25 -0.08-0.18-0.22-0.34-0.33-0.51 -0.14 0.15-0.28 0.3-0.42 0.44C47.05 119.1 47.22 119.23 47.41 119.31zM107.26 116.77c-0.15 0.01-0.3 0.21-0.45 0.32 0.18 0.09 0.36 0.25 0.54 0.24 0.15-0.01 0.3-0.2 0.45-0.31C107.62 116.93 107.44 116.76 107.26 116.77zM286.8 51.17c-0.02-0.03-0.27 0.01-0.28 0.05 -0.04 0.18-0.04 0.37-0.04 0.56 0.18-0.02 0.37-0.05 0.55-0.07C286.95 51.52 286.89 51.33 286.8 51.17zM35.99 69.25c-0.06 0.08-0.19 0.22-0.17 0.24 0.12 0.13 0.26 0.24 0.4 0.36 0.06-0.08 0.12-0.16 0.19-0.24C36.27 69.49 36.13 69.37 35.99 69.25zM313.28 72.53c0.14-0.05 0.29-0.1 0.43-0.15 -0.06-0.08-0.1-0.19-0.18-0.22 -0.08-0.02-0.18 0.05-0.28 0.08C313.26 72.34 313.27 72.43 313.28 72.53zM114.2 103.92c-0.11-0.17-0.19-0.47-0.33-0.5 -0.2-0.04-0.43 0.12-0.65 0.2 0.12 0.19 0.23 0.37 0.35 0.56C113.78 104.09 113.99 104.01 114.2 103.92zM67.11 82.73c-0.14 0.24-0.27 0.49-0.41 0.73 0.21 0.05 0.45 0.19 0.63 0.14 0.15-0.05 0.22-0.33 0.33-0.5C67.47 82.97 67.29 82.85 67.11 82.73zM123.59 104.88c0.16-0.06 0.31-0.12 0.47-0.17 -0.06-0.08-0.11-0.21-0.19-0.23 -0.09-0.02-0.2 0.06-0.3 0.1C123.58 104.67 123.58 104.78 123.59 104.88zM312.79 49.94c-0.33-0.31-0.65-0.61-0.98-0.92 -0.07 0.14-0.14 0.27-0.22 0.41 0.42 0.15 0.85 0.3 1.27 0.45L312.79 49.94zM15.87 50.13c0.03 0.01 0.22-0.18 0.2-0.22 -0.08-0.17-0.21-0.32-0.33-0.47 -0.13 0.13-0.26 0.26-0.39 0.39C15.52 49.94 15.68 50.06 15.87 50.13zM246.97 83.26c0.16 0.13 0.31 0.35 0.47 0.36 0.19 0.01 0.39-0.17 0.59-0.27 -0.16-0.13-0.32-0.26-0.47-0.39C247.36 83.06 247.16 83.16 246.97 83.26zM52.68 66.22c-0.07-0.03-0.19 0.04-0.29 0.06 0.08 0.14 0.16 0.28 0.24 0.42 0.06-0.07 0.13-0.15 0.19-0.22C52.78 66.39 52.76 66.25 52.68 66.22zM303.71 85.06c0.21 0.01 0.42 0.04 0.62 0.01 0.05-0.01 0.12-0.28 0.08-0.32 -0.14-0.14-0.33-0.23-0.5-0.33C303.83 84.63 303.77 84.85 303.71 85.06zM28.16 63.96c-0.16 0-0.32 0.28-0.49 0.43 0.16 0.15 0.31 0.41 0.48 0.43 0.15 0.01 0.33-0.25 0.54-0.43C28.5 64.23 28.33 63.97 28.16 63.96zM300.04 62.3c-0.06 0.09-0.19 0.24-0.18 0.26 0.13 0.14 0.28 0.26 0.43 0.38 0.06-0.09 0.12-0.18 0.19-0.27C300.32 62.54 300.18 62.42 300.04 62.3zM90.14 109.02c0.01 0.1 0 0.27 0.04 0.28 0.17 0.06 0.36 0.07 0.54 0.1 -0.01-0.1-0.02-0.2-0.04-0.3C90.5 109.08 90.32 109.05 90.14 109.02zM249.81 108.99c-0.06 0.14-0.13 0.27-0.19 0.4 0.09 0.01 0.21 0.06 0.27 0.02 0.07-0.04 0.09-0.16 0.13-0.25C249.94 109.11 249.88 109.05 249.81 108.99zM67.22 118.76c0.03 0.1 0.07 0.19 0.1 0.29 0.1-0.04 0.19-0.08 0.36-0.14C67.49 118.84 67.36 118.8 67.22 118.76zM77.59 118.61c-0.07-0.03-0.19 0.05-0.3 0.09 0.04 0.1 0.05 0.24 0.12 0.28 0.06 0.03 0.19-0.05 0.28-0.08C77.67 118.79 77.66 118.64 77.59 118.61zM249.31 119.81l-0.22-0.09 0.01 0.27L249.31 119.81zM312.86 49.88c0.18 0.38 0.35 0.76 0.53 1.14 0.09-0.06 0.19-0.11 0.28-0.17 -0.29-0.3-0.59-0.61-0.88-0.91L312.86 49.88zM306.65 52.1c0.34-0.07 0.68-0.13 1.02-0.2 -0.06-0.14-0.11-0.28-0.17-0.42 -0.26 0.23-0.52 0.46-0.78 0.69L306.65 52.1zM30.05 60.53c0.03 0.09 0.05 0.17 0.08 0.25 0.09-0.03 0.17-0.06 0.32-0.11C30.28 60.61 30.16 60.57 30.05 60.53zM250.68 67.13c-0.32-0.11-0.64-0.23-0.95-0.35 0.3 0.14 0.59 0.28 0.89 0.41L250.68 67.13zM295.75 68.11c-0.01 0-0.07 0.19-0.11 0.3 0.2 0.07 0.4 0.14 0.61 0.19 0.01 0 0.07-0.19 0.11-0.3C296.15 68.22 295.95 68.15 295.75 68.11zM270.06 79.92c0.03-0.07-0.02-0.18-0.04-0.27 -0.13 0.08-0.26 0.15-0.39 0.23 0.06 0.07 0.12 0.13 0.17 0.19C269.9 80.01 270.02 79.98 270.06 79.92zM280.39 90.86l-0.23-0.15 -0.08 0.22L280.39 90.86zM228.18 101.95c-0.03-0.02-0.19 0.09-0.29 0.14 0.13 0.16 0.24 0.33 0.39 0.47 0.02 0.02 0.17-0.1 0.26-0.16C228.42 102.25 228.32 102.08 228.18 101.95zM101.55 109.61c-0.13-0.15-0.25-0.32-0.39-0.45 -0.02-0.02-0.18 0.1-0.27 0.16 0.12 0.15 0.24 0.3 0.36 0.45C101.35 109.71 101.45 109.66 101.55 109.61zM245.66 117.1c0.16-0.06 0.32-0.12 0.48-0.18 -0.07-0.08-0.12-0.21-0.2-0.23 -0.09-0.02-0.2 0.06-0.3 0.1C245.65 116.89 245.65 116.99 245.66 117.1zM240.67 113.27c-0.07 0.17-0.14 0.33-0.22 0.5 0.11 0.01 0.25 0.07 0.32 0.02 0.08-0.05 0.11-0.2 0.16-0.31C240.85 113.41 240.76 113.34 240.67 113.27zM243.79 107.76l0.08 0.27 0.22-0.23L243.79 107.76zM301.37 72.11l0.23 0.12 0-0.23L301.37 72.11zM277.92 109.4l0.14-0.27 -0.28 0L277.92 109.4zM27.25 68.33l-0.3-0.14 0 0.28L27.25 68.33zM296.42 64.42l-0.24 0.1 0.22 0.13L296.42 64.42zM320.77 55.09c-0.02-0.03-0.17 0.04-0.25 0.06 0.03 0.1 0.04 0.22 0.1 0.29 0.02 0.03 0.17-0.04 0.25-0.06C320.84 55.28 320.83 55.16 320.77 55.09zM316.82 50.01l0.2 0.03 -0.07-0.22L316.82 50.01zM248.44 105.82l-0.21-0.11 0 0.21L248.44 105.82zM272.15 124.52c0.02 0.07 0.04 0.15 0.06 0.23 0.08-0.02 0.16-0.05 0.32-0.09C272.36 124.59 272.25 124.55 272.15 124.52zM69.45 99.71l0.13-0.27 -0.26 0L69.45 99.71zM37.45 49.22l0.15 0.05 -0.1-0.07L37.45 49.22zM268.55 89.77c0.26 0.26 0.51 0.51 0.77 0.76l0.06-0.06c-0.25-0.26-0.51-0.52-0.76-0.78L268.55 89.77zM268.62 89.7l-0.07 0.07L268.62 89.7zM150.95 126.86c-1.04 0.22-2.07 0.45-3.11 0.64 -0.66 0.12-1.34 0.17-2 0.25 0.34 0.74 0.48 1.77 1.05 2.19 2.85 2.08 6.01 2.73 9.52 1.92 1.51-0.35 3.13-0.27 4.71-0.31 2.04-0.05 4.1-0.17 6.13 0.01 3.32 0.28 7.12-2.38 9.92 1.6 0.35 0.49 1.65 0.61 2.41 0.44 3.61-0.77 5.96-3 6.88-6.59 0.65-2.51-0.38-4.17-2.89-4.63 -0.35-0.07-1.2 0.61-1.17 0.7 1.1 3.03-1.24 1.98-2.46 2.03 -1.87 0.07-3.75-0.11-5.61-0.04 -0.66 0.03-1.3 0.48-1.95 0.73 0.37 0.55 0.66 1.2 1.14 1.62 0.34 0.3 0.94 0.31 1.43 0.45 -0.26 0.43-0.52 0.86-0.77 1.29 -2.91-0.58-6.6-0.27-8.53-1.96 -2.97-2.61-6.55-1.35-9.55-2.98 -1.8-0.98-4.28-0.7-7.02-1.05C150.01 125.01 150.48 125.93 150.95 126.86zM174.05 87.43c0.05-0.24 0.09-0.49 0.15-0.73 0.3-1.23 0.6-2.45 0.9-3.68 -1.14 0.08-2.35-0.04-3.41 0.29 -5.18 1.61-10.04 0.67-14.79-1.56 -0.48-0.22-1.08-0.19-1.62-0.27 0.01 0.71-0.26 1.81 0.09 2.05 3 2.16 4.53 4.22 0.57 7.02 -0.31 0.22 0.55 2.21 1.01 3.31 0.11 0.26 1.15 0.44 1.17 0.39 0.4-0.88 0.77-1.78 1.02-2.71 0.23-0.83 0.13-1.8 0.5-2.54 0.28-0.56 1.07-1.17 1.65-1.2 0.43-0.02 1.27 0.85 1.29 1.36 0.15 3.17 1.61 2.39 3.33 0.79 -0.24 1.7-0.63 2.99-0.5 4.24 0.06 0.55 1.14 1 1.76 1.5 0.41-0.63 1.3-1.39 1.16-1.85 -0.63-2.19 0.35-2.35 2.1-2.14 0.22 0.03 0.92-1.62 0.82-1.69 -1.34-0.95-2.78-1.77-4.33-2.69 2.31-2.09 4.81 0.3 7.21 0.04L174.05 87.43zM161.43 121.1c2.23 1.7 4.24 4.73 7.3 1.13 0.13-0.15 0.48-0.21 0.71-0.18 4.21 0.49 7.69-1.42 11.28-3.19 1.33-0.66 3.54-1.69 3.78 1.49 0.01 0.18 1.2 0.28 1.84 0.41 -0.19-1.78-0.02-3.71-0.68-5.29 -0.67-1.62-2.23-1.04-3.51-0.25 -1.06 0.65-2.19 1.18-3.27 1.78 -5.94 3.25-12.01 4.71-18.51 1.51 -1.08-0.53-2.42-0.73-3.63-0.69 -0.6 0.02-1.42 0.83-1.68 1.47 -0.16 0.41 0.38 1.35 0.86 1.72 0.65 0.49 1.87 0.43 2.27 1 2.2 3.13 2.53 0.43 3.31-0.96L161.43 121.1zM155.2 109.79c0.79 0.73 1.55 1.5 2.38 2.18 0.65 0.53 1.55 0.8 2.08 1.41 3.22 3.76 5.19 4.31 9.72 2.56 0.45-0.17 0.94-0.32 1.41-0.35 0.82-0.06 1.65-0.02 2.48-0.03 -0.8-0.62-1.52-1.48-2.42-1.81 -1.11-0.41-2.4-0.29-3.57-0.57 -2.59-0.62-5.19-1.24-7.72-2.06 -1.34-0.44-2.54-1.3-3.81-1.96C155.57 109.37 155.38 109.58 155.2 109.79zM170.58 59.65c-2.95-0.35-5.89-0.72-8.85-1.02 -0.19-0.02-0.61 0.49-0.64 0.79 -0.14 1.34-0.42 2.74-0.17 4.03 0.14 0.71 1.14 1.43 1.92 1.74 0.28 0.11 1.06-0.92 1.56-1.48 0.41-0.45 0.66-1.25 1.14-1.4 1.64-0.51 3.36-0.8 5.04-1.18C170.58 60.64 170.58 60.15 170.58 59.65zM141.87 135.64c-1.12-1.01-2.19-2.11-3.4-3.01 -1.06-0.79-2.27-1.38-3.43-2.02 -0.74-0.41-1.52-0.76-2.27-1.14 0.06 0.94-0.01 1.9 0.21 2.8 0.13 0.53 0.62 1.08 1.1 1.41 1.71 1.16 3.43 2.33 5.26 3.28 0.56 0.29 1.48-0.15 2.24-0.25C141.68 136.35 141.77 136 141.87 135.64zM198.5 129.13c-0.85 0.78-1.68 1.59-2.57 2.32 -1.05 0.87-2.12 1.72-3.23 2.49 -2.63 1.84-2.77 2.42-1.07 5.84 2.57-3.34 5.09-6.6 7.6-9.87C198.99 129.65 198.74 129.39 198.5 129.13zM149.24 117c1.09 0.48 2.12 2.37 3.25 0.43 0.19-0.32-1.52-1.84-2.46-2.68 -0.43-0.39-1.13-0.48-1.71-0.7 -2.19-0.8-3.83 0.16-4.08 2.52 -0.07 0.66 0.3 1.37 0.47 2.06 0.55-0.32 1.11-0.63 1.64-0.98 0.58-0.37 1.14-0.78 1.62-1.11C148.55 116.74 148.91 116.85 149.24 117zM145.37 90.36c-0.05 0.69-0.27 1.43-0.1 2.07 0.18 0.7 0.72 1.31 1.1 1.97 0.37-0.65 1.02-1.29 1.05-1.96 0.15-2.92-1.55-5.17-4.68-6.25 -0.28 1.95-0.56 3.84-0.83 5.73 0.32 0.07 0.63 0.15 0.95 0.22 0.57-0.68 1.15-1.37 1.72-2.06C144.84 90.16 145.11 90.26 145.37 90.36zM163.24 105.64c-2.72-1.03-5.34-2.02-8.24-3.11C157.15 106.64 160.12 107.72 163.24 105.64zM227.5 129.9c1.94 2.04 3.85 4.12 5.86 6.1 0.32 0.31 1.07 0.19 1.63 0.26 0.02-0.44 0.23-1.08 0.02-1.28 -2.16-2.07-4.4-4.08-6.61-6.1C228.1 129.22 227.81 129.56 227.5 129.9zM174.3 105.38c0.52-0.35 0.65-1.26 0.96-1.91 -0.76-0.16-1.6-0.59-2.26-0.4 -1 0.29-1.94 0.94-2.79 1.58 -0.39 0.29-0.83 1.08-0.69 1.36 0.23 0.44 0.92 0.63 1.36 0.89C172.13 106.36 173.32 106.03 174.3 105.38zM134.68 105.45c0.76 0.44 1.51 0.92 2.3 1.31 0.54 0.27 1.13 0.52 1.72 0.58 0.52 0.06 1.14-0.05 1.57-0.32 0.15-0.1 0.04-1.04-0.24-1.32 -0.69-0.7-1.53-1.23-2.42-1.92C136.41 104.46 135.54 104.95 134.68 105.45zM143.35 124.23c0.54 0.24 1.37 0.84 1.58 0.67 1.02-0.8 1.86-1.81 2.77-2.74 -0.39-0.38-1.02-1.16-1.15-1.09 -1.04 0.6-1.99 1.36-2.97 2.07C143.51 123.5 143.43 123.86 143.35 124.23zM170.98 165.39c-1.7 0-3.39 0-5.09 0 0.01 0.25 0.01 0.51 0.02 0.76 1.71 0 3.41 0 5.12 0C171.01 165.89 170.99 165.64 170.98 165.39zM134.69 73.23c-1.5-1.65-3.01-3.29-4.51-4.94 -0.2 0.21-0.41 0.42-0.61 0.62 1.63 1.52 3.26 3.04 4.89 4.56C134.53 73.39 134.61 73.31 134.69 73.23zM164.4 135.06c-1.81 0.29-3.62 0.58-5.43 0.87 0.04 0.26 0.08 0.51 0.12 0.77 1.78-0.16 3.57-0.31 5.35-0.47C164.43 135.84 164.42 135.45 164.4 135.06zM149.26 77.13c0.92 0.99 1.84 1.97 2.76 2.96 0.3-0.28 0.6-0.55 0.9-0.83 -0.89-0.99-1.78-1.98-2.67-2.97C149.92 76.57 149.59 76.85 149.26 77.13zM205.4 148.19c0-1.19 0-2.37 0-3.56 -0.32 0.02-0.92 0.03-0.92 0.05 -0.01 1.14 0.02 2.27 0.06 3.41C204.82 148.12 205.11 148.15 205.4 148.19zM162.59 46.38c-0.36-0.15-0.96-0.53-1.06-0.43 -0.62 0.64-1.13 1.39-1.68 2.1 0.34 0.26 0.75 0.79 1.01 0.73 0.95-0.22 1.84-0.65 2.76-1C163.27 47.31 162.93 46.85 162.59 46.38zM169.53 46.13c1.11-1.27 0.76-2.29-0.68-2.87 -0.41-0.17-1.07 0.27-1.62 0.43 0.61 0.66 1.22 1.32 1.84 1.98 0.17 0.18 0.35 0.35 0.53 0.52L169.53 46.13zM189.79 88.16c0.04-0.29-0.95-1.04-1.09-0.96 -0.57 0.34-1 0.94-1.48 1.44 0.41 0.39 0.83 0.79 1.52 1.44C189.22 89.28 189.73 88.75 189.79 88.16zM169.37 132.77c-0.47 0.08-0.87 0.6-1.31 0.93 0.49 0.26 0.98 0.71 1.47 0.73 0.46 0.02 0.93-0.44 1.96-0.99C170.4 133.07 169.85 132.7 169.37 132.77zM209.18 172.96c-0.08-1.05-0.16-2.1-0.25-3.14 -0.25 0.02-0.49 0.04-0.74 0.06 0 1.05 0 2.1 0 3.14C208.52 173 208.85 172.98 209.18 172.96zM168.76 152.42c-1.65 0-3.31 0-4.96 0 0.01 0.11 0.03 0.21 0.04 0.31 1.65 0 3.3 0 4.95 0C168.78 152.63 168.77 152.53 168.76 152.42zM181.65 77.82c-1 0.98-1.99 1.96-2.99 2.94l-0.06-0.06c2.4 0.44 2.65-1.28 2.97-2.94L181.65 77.82zM124.63 172.2c0.09 0.88 0.19 1.76 0.28 2.64 0.27-0.03 0.54-0.06 0.81-0.09 0-0.87 0-1.73 0-2.6C125.36 172.17 125 172.18 124.63 172.2zM155.32 50.64c0.03 0.39 0.44 0.75 0.69 1.13 0.35-0.39 0.86-0.73 0.99-1.18 0.08-0.26-0.46-0.7-0.96-1.39C155.67 49.9 155.29 50.29 155.32 50.64zM160.15 170.47c-0.33 0.02-0.86 0.53-0.86 0.82 0 0.38 0.38 0.94 0.72 1.06 0.25 0.09 0.71-0.39 2.05-1.23C161.09 170.77 160.61 170.44 160.15 170.47zM163.34 74.76c-0.33-0.02-0.7 0.44-1.05 0.68 0.29 0.35 0.52 0.88 0.89 1 0.3 0.1 0.76-0.29 1.5-0.62C164.02 75.27 163.7 74.78 163.34 74.76zM125.53 138.49c-0.28 0.26-0.67 0.48-0.8 0.81 -0.07 0.17 0.33 0.52 0.52 0.78 0.24-0.18 0.48-0.36 0.78-0.57C125.83 139.1 125.68 138.79 125.53 138.49zM126.39 145.44c0.01-0.26-0.37-0.52-0.57-0.79 -0.3 0.28-0.73 0.52-0.85 0.86 -0.08 0.22 0.29 0.6 0.54 1.06C126 145.96 126.38 145.7 126.39 145.44zM128.35 131.46c0.02-0.29-0.3-0.6-0.46-0.9 -0.32 0.28-0.83 0.51-0.91 0.84 -0.08 0.33 0.28 0.77 0.67 1.71C128.06 132.21 128.33 131.84 128.35 131.46zM181.57 77.75c0.46-0.73 0.92-1.46 1.38-2.18 -0.21-0.09-0.41-0.18-0.62-0.27 -0.23 0.84-0.45 1.68-0.68 2.52L181.57 77.75zM174.13 87.35c0.23 0.64 0.47 1.28 0.7 1.92 0.27-0.19 0.53-0.38 0.8-0.57 -0.52-0.42-1.05-0.85-1.57-1.27L174.13 87.35zM147.17 73.06c-0.07-0.09-0.59 0.02-0.6 0.08 -0.05 0.32-0.11 0.73 0.05 0.97 0.1 0.15 0.57 0.06 1.09 0.09C147.47 73.66 147.37 73.32 147.17 73.06zM195.34 73.71c0.04 0.25 0.42 0.46 0.65 0.68 0.26-0.29 0.53-0.57 0.79-0.86 -0.26-0.19-0.51-0.38-0.86-0.64C195.66 73.22 195.3 73.49 195.34 73.71zM167.78 100.09c-0.05-0.25-0.48-0.6-0.71-0.58 -0.23 0.02-0.59 0.43-0.61 0.69 -0.03 0.29 0.27 0.61 0.54 1.15C167.47 100.62 167.82 100.32 167.78 100.09zM152.89 107.93c0.19 0.19 0.41 0.56 0.57 0.54 0.29-0.05 0.63-0.28 0.77-0.53 0.07-0.11-0.28-0.47-0.5-0.8C153.37 107.48 153.13 107.7 152.89 107.93zM151.62 83.72c-0.18 0.06-0.29 0.29-0.43 0.45 0.22 0.14 0.44 0.27 0.67 0.41 0.08-0.19 0.15-0.39 0.23-0.58C151.93 83.9 151.73 83.68 151.62 83.72zM150.35 97.88c-0.21 0.1-0.42 0.2-0.63 0.3 0.13 0.27 0.27 0.54 0.4 0.8 0.17-0.15 0.33-0.3 0.49-0.46C150.53 98.31 150.44 98.09 150.35 97.88zM110.74 45.78c-0.02-0.01-0.23 0.17-0.22 0.23 0.05 0.2 0.17 0.39 0.26 0.58 0.14-0.15 0.28-0.3 0.42-0.45C111.06 46.03 110.91 45.89 110.74 45.78zM171 71.86c0.08-0.18-0.03-0.45-0.06-0.68 -0.26 0.12-0.54 0.21-0.75 0.39 -0.05 0.05 0.16 0.39 0.25 0.6C170.64 72.06 170.93 72.01 171 71.86zM191.21 80.86c-0.05 0.16 0.13 0.4 0.21 0.6 0.18-0.1 0.47-0.18 0.5-0.32 0.04-0.18-0.12-0.41-0.19-0.62C191.54 80.62 191.25 80.7 191.21 80.86zM153.46 145.72c0.15-0.17 0.38-0.33 0.41-0.52 0.02-0.12-0.26-0.29-0.41-0.43 -0.15 0.17-0.3 0.35-0.43 0.5C153.18 145.42 153.32 145.57 153.46 145.72zM169.38 144.93c0.07 0.17 0.13 0.33 0.2 0.5 0.09-0.06 0.23-0.12 0.25-0.2 0.02-0.09-0.07-0.21-0.11-0.31C169.6 144.92 169.49 144.92 169.38 144.93zM154.65 148.5c-0.03-0.04-0.29 0-0.3 0.04 -0.05 0.18-0.04 0.37-0.05 0.55 0.2-0.02 0.39-0.04 0.59-0.06C154.81 148.85 154.75 148.66 154.65 148.5zM108.76 43.7c0 0.08 0.08 0.17 0.13 0.26 0.1-0.11 0.2-0.21 0.3-0.32 -0.08-0.04-0.17-0.08-0.23-0.12C108.88 43.58 108.76 43.64 108.76 43.7zM160.07 43.56c-0.07 0.15-0.13 0.3-0.2 0.45 0.1 0.02 0.23 0.09 0.28 0.05 0.07-0.05 0.09-0.18 0.14-0.3C160.22 43.7 160.15 43.63 160.07 43.56zM101.58 131.67c-0.06-0.03-0.18 0.04-0.27 0.06 0.07 0.13 0.14 0.26 0.21 0.39 0.06-0.07 0.12-0.13 0.18-0.2C101.66 131.83 101.64 131.7 101.58 131.67zM166.15 178.65c-0.09-0.21-0.18-0.42-0.27-0.64 -0.25 0.12-0.49 0.23-0.74 0.34 0.12 0.18 0.24 0.35 0.37 0.53C165.72 178.81 165.94 178.73 166.15 178.65zM162.76 146.01c0.03 0.1 0.06 0.2 0.08 0.3 0.1-0.04 0.2-0.08 0.39-0.15C163.03 146.1 162.89 146.06 162.76 146.01zM170.52 67.08c0 0.02 0.16 0.07 0.24 0.11 0.05-0.17 0.12-0.35 0.15-0.53 0-0.02-0.16-0.07-0.25-0.1C170.61 66.73 170.55 66.9 170.52 67.08zM183.91 68.22c-0.02-0.02-0.18 0.1-0.27 0.16 0.11 0.16 0.22 0.32 0.35 0.46 0.01 0.01 0.16-0.11 0.25-0.17C184.14 68.51 184.04 68.35 183.91 68.22zM179.9 101.87c-0.08-0.05-0.21-0.02-0.33-0.03 0.03 0.14 0.06 0.28 0.1 0.42 0.1-0.04 0.2-0.08 0.3-0.12C179.95 102.05 179.96 101.9 179.9 101.87zM148.03 68.67l0.1 0.26 0.14-0.23L148.03 68.67zM206.7 157.43l0.1-0.22 -0.2 0L206.7 157.43zM178.6 80.7c-0.15 0.09-0.29 0.18-0.44 0.28 0.07-0.04 0.14-0.1 0.21-0.13 0.09-0.04 0.2-0.06 0.3-0.08L178.6 80.7zM169.53 46.13l0.06 0.06L169.53 46.13zM83.27 62c3.68-1.24 6.3 1.33 9.27 2.6 3.7 1.59 7.36 3.26 11.04 4.9 0.12-1.46 0.06-2.57-1.93-2.81 -1.39-0.17-2.71-1.02-4.04-1.63 -2.53-1.16-5.07-2.3-7.53-3.59 -0.63-0.33-1-1.18-1.49-1.79C86.75 60.3 83.77 58.31 83.27 62zM82.11 58.99c0.05-0.03-0.14-0.81-0.33-0.87 -2.54-0.75-5.1-1.47-7.68-2.1 -0.28-0.07-0.93 0.47-1.01 0.81 -0.07 0.29 0.38 0.94 0.72 1.04 2.1 0.65 4.24 1.2 6.69 1.86C80.89 59.57 81.52 59.32 82.11 58.99zM20.01 85.42c-0.2-1.4-0.41-2.8-0.61-4.19 -0.76 0.27-2.21 0.64-2.18 0.8 0.18 1.26 0.64 2.48 1.02 3.7C18.83 85.63 19.42 85.53 20.01 85.42zM155.85 128.54c-0.45-0.28-0.88-0.72-1.37-0.78 -0.26-0.03-0.88 0.62-0.84 0.89 0.07 0.45 0.54 0.83 1.04 1.51C155.21 129.42 155.53 128.98 155.85 128.54zM182.95 128.82c-0.23-0.19-0.56-0.58-0.68-0.52 -0.35 0.16-0.61 0.5-0.9 0.77 0.25 0.18 0.51 0.37 0.8 0.58C182.49 129.32 182.72 129.07 182.95 128.82zM161.43 121.1c-0.32-0.12-0.63-0.26-0.96-0.37 -0.05-0.02-0.15 0.1-0.22 0.16 0.42 0.05 0.83 0.1 1.25 0.15L161.43 121.1z"/></svg>
